<?xml version="1.0" encoding="UTF-8"?>
<svg version="1.1" xmlns="http://www.w3.org/2000/svg" width="500" height="500">
<path d="M0 0 C0.9295752 0.18191895 1.85915039 0.36383789 2.81689453 0.55126953 C15.5675634 3.08509984 27.85698421 6.8724054 39.7956543 12.04711914 C41.96322493 13.01987304 41.96322493 13.01987304 44.12036133 13.71655273 C46.04296875 14.5 46.04296875 14.5 49 17 C50.08649932 20.95718453 49.97590221 24.85537353 49.9375 28.9375 C49.95288818 30.16557373 49.96827637 31.39364746 49.98413086 32.65893555 C50.02623794 36.25871587 50.01927164 39.85720531 50.0057373 43.45715332 C49.99718786 47.24637551 50.01387862 51.03543514 50.02787781 54.82463074 C50.07131476 66.88345143 50.04804297 78.94121457 50 91 C42.08 91 34.16 91 26 91 C24.25584777 86.34892738 22.63069496 81.89930089 21.1875 77.1875 C16.3095817 62.60875921 7.55551828 50.60749856 -6 43 C-24.73938795 33.79316281 -46.15063809 30.98437599 -66.359375 37 C-73.76900823 39.6438128 -79.86173007 43.10792245 -86 48 C-86.74765625 48.56074219 -87.4953125 49.12148437 -88.265625 49.69921875 C-105.54091977 63.62213988 -112.46546181 86.10914221 -115.46484375 107.28125 C-115.75064791 110.19410337 -115.9115854 113.07462999 -116 116 C-116.05994141 117.73443359 -116.05994141 117.73443359 -116.12109375 119.50390625 C-116.52477135 142.27607176 -112.03272921 164.53852671 -98.76953125 183.40625 C-97.29743905 185.5640187 -96.08844506 187.63332972 -95 190 C-94.34 190 -93.68 190 -93 190 C-91.85611071 191.14388929 -90.7144415 192.29005824 -89.58203125 193.4453125 C-77.9290283 204.89690553 -63.14369627 209.83060903 -47 210 C-33.76405958 209.60893812 -21.67434632 206.52377284 -12 197 C-7.29623253 191.55353241 -7.39890403 186.70893904 -7.390625 179.6953125 C-7.37408875 178.61619598 -7.35755249 177.53707947 -7.34051514 176.42526245 C-7.29208141 172.99178346 -7.27067364 169.55874728 -7.25 166.125 C-7.22183658 163.79164445 -7.19190864 161.45830948 -7.16015625 159.125 C-7.0863231 153.41670311 -7.03671973 147.70865139 -7 142 C-13.6 142 -20.2 142 -27 142 C-27 132.76 -27 123.52 -27 114 C26.46 113.505 26.46 113.505 81 113 C75.39 112.67 69.78 112.34 64 112 C64 103.09 64 94.18 64 85 C67.28807617 84.9906543 70.57615234 84.98130859 73.96386719 84.97167969 C84.90026148 84.93771816 95.83647088 84.88206425 106.77271652 84.81609726 C113.39502886 84.77680344 120.01722567 84.74452682 126.63964844 84.72900391 C133.04596107 84.71371742 139.45191755 84.67906228 145.85807037 84.63169098 C148.28650036 84.61699983 150.71498123 84.60896615 153.14345551 84.60811615 C172.88222929 84.5942755 190.65604426 82.68856356 209.0078125 75.171875 C212 74 212 74 214 74 C214 101.72 214 129.44 214 158 C204.76 158 195.52 158 186 158 C185.6875 147.375 185.6875 147.375 185.61206055 144.06005859 C185.40676178 138.61439641 184.88074857 134.77292927 182 130 C182 129.34 182 128.68 182 128 C174.48720095 123.95464667 169.00955681 123.7507964 160 123 C160 145.11 160 167.22 160 190 C168.8790625 189.8453125 168.8790625 189.8453125 177.9375 189.6875 C179.78722412 189.66260498 181.63694824 189.63770996 183.54272461 189.61206055 C185.03762207 189.57972263 186.53249748 189.54634224 188.02734375 189.51171875 C188.78019653 189.50547485 189.53304932 189.49923096 190.30871582 189.49279785 C195.83531759 189.3458848 200.98103495 188.41477479 206 186 C211.03608687 180.33440227 211.13351868 174.48930299 211 167.1875 C210.96271796 165.12533699 210.95280206 163.06195989 211 161 C211.33 160.67 211.66 160.34 212 160 C220.91 160 229.82 160 239 160 C239 191.68 239 223.36 239 256 C229.76 256 220.52 256 211 256 C211.06510417 252.32161458 211.13020833 248.64322917 211.1953125 244.96484375 C210.94838407 239.95219667 209.57502152 235.72506455 208 231 C205.62374655 229.81608777 205.62374655 229.81608777 203 229 C202.01 228.67 201.02 228.34 200 228 C198.66548737 227.88764839 197.32645611 227.82424351 195.98754883 227.79467773 C195.175802 227.77449585 194.36405518 227.75431396 193.52770996 227.73352051 C192.67938599 227.71704468 191.83106201 227.70056885 190.95703125 227.68359375 C189.78207092 227.65561707 189.78207092 227.65561707 188.58337402 227.6270752 C185.65986309 227.55882367 182.73616819 227.49864548 179.8125 227.4375 C173.274375 227.293125 166.73625 227.14875 160 227 C160 240.2 160 253.4 160 267 C162.97 266.34 165.94 265.68 169 265 C170.59085882 269.47515504 171.69471901 273.90639665 172.625 278.5625 C172.88539063 279.84253906 173.14578125 281.12257813 173.4140625 282.44140625 C173.90325497 285.4124352 174.04806869 288.01044817 174 291 C179.19234318 290.90544 184.38427503 290.79913879 189.57617188 290.68261719 C191.33717519 290.64467007 193.09824702 290.60976203 194.859375 290.578125 C213.31851196 290.6540362 213.31851196 290.6540362 230.5625 284.9375 C233.40562476 283.39322639 235.92809185 282.02396938 239 281 C239 280.34 239 279.68 239 279 C239.7528125 278.40316406 240.505625 277.80632812 241.28125 277.19140625 C251.02103698 269.34080209 255.58220048 254.88134436 259.203125 243.3359375 C260 241 260 241 261 240 C262.99964982 239.91241997 265.0023611 239.89303424 267.00390625 239.90234375 C268.21884766 239.90556641 269.43378906 239.90878906 270.68554688 239.91210938 C271.96494141 239.92048828 273.24433594 239.92886719 274.5625 239.9375 C275.84576172 239.94201172 277.12902344 239.94652344 278.45117188 239.95117188 C281.63416022 239.96300455 284.81705762 239.97948932 288 240 C287.38730977 245.47711562 286.48886667 250.76125753 285.25 256.12841797 C285.075896 256.89690567 284.90179199 257.66539337 284.72241211 258.45716858 C284.15211182 260.96973246 283.57621361 263.48097373 283 265.9921875 C282.59999319 267.74710098 282.20025784 269.50207635 281.80078125 271.2571106 C280.96600225 274.920672 280.12854877 278.58360819 279.2890625 282.24609375 C278.2118951 286.94613555 277.14054138 291.64747924 276.07104492 296.34927177 C275.24776534 299.96643001 274.42191003 303.58299616 273.59521484 307.19937515 C273.19900623 308.93361817 272.80349623 310.66802094 272.40869141 312.40258408 C271.85834632 314.81829858 271.30465484 317.23322114 270.75 319.64794922 C270.58685303 320.36689865 270.42370605 321.08584808 270.25561523 321.82658386 C269.11438026 326.77123948 269.11438026 326.77123948 268 329 C200.68 329 133.36 329 64 329 C64 319.76 64 310.52 64 301 C66.64 300.67 69.28 300.34 72 300 C71.22398437 299.731875 70.44796875 299.46375 69.6484375 299.1875 C40.27680745 288.53239793 18.75202439 267.7729431 5 240 C3.79988281 240.32613281 2.59976563 240.65226563 1.36328125 240.98828125 C-28.09796024 248.80691054 -57.90015593 250.75806759 -88 245 C-88.71220703 244.86609863 -89.42441406 244.73219727 -90.15820312 244.59423828 C-111.89499914 240.31227631 -132.28924429 230.51641405 -149 216 C-149.80695313 215.31421875 -150.61390625 214.6284375 -151.4453125 213.921875 C-170.09074607 197.67287647 -182.8307771 178.18335379 -189 154 C-189.30035156 152.84242188 -189.60070312 151.68484375 -189.91015625 150.4921875 C-194.39208602 129.85446438 -193.87834671 106.27917004 -188 86 C-187.79101074 85.2668457 -187.58202148 84.53369141 -187.36669922 83.77832031 C-182.8804947 68.58235264 -175.48146249 54.90336631 -165 43 C-164.31421875 42.18273437 -163.6284375 41.36546875 -162.921875 40.5234375 C-144.67153285 19.31890327 -119.85917812 6.51999888 -93 0 C-92.16098145 -0.21027832 -91.32196289 -0.42055664 -90.45751953 -0.63720703 C-61.66741181 -7.5226276 -28.81015831 -5.95380585 0 0 Z M85 115 C85 123.91 85 132.82 85 142 C78.4 142 71.8 142 65 142 C64.90870889 149.6424706 64.83572349 157.28473034 64.79275131 164.92761803 C64.7721003 168.47864828 64.74420992 172.0292782 64.69824219 175.58007812 C64.34929723 203.28796221 67.12924416 226.7308217 85 249 C86.485 249.99 86.485 249.99 88 251 C88.0700345 233.71078724 88.12296084 216.42161865 88.15543652 199.13229656 C88.17091532 191.10483246 88.19202411 183.07745642 88.22631836 175.05004883 C88.2561898 168.05458147 88.27556763 161.05917788 88.28226548 154.06364852 C88.2861816 150.35843471 88.2954058 146.65340334 88.31719017 142.94824791 C88.34129353 138.81526927 88.34197145 134.6826092 88.34057617 130.54956055 C88.351362 129.31669815 88.36214783 128.08383575 88.3732605 126.81361389 C88.36913651 125.69040741 88.36501251 124.56720093 88.36076355 123.40995789 C88.36491162 121.94292435 88.36491162 121.94292435 88.36914349 120.44625378 C88.18604872 117.59236685 88.18604872 117.59236685 85 115 Z " fill="#DF6D5E" transform="translate(200,55)"/>
<path d="M0 0 C1 1 1 1 1.12025452 3.13233948 C1.11803391 4.07165817 1.11581329 5.01097687 1.11352539 5.97875977 C1.11344986 7.03978409 1.11337433 8.10080841 1.11329651 9.19398499 C1.10813522 10.348134 1.10297394 11.50228302 1.09765625 12.69140625 C1.09553383 14.4538694 1.09553383 14.4538694 1.09336853 16.25193787 C1.08774992 20.02215064 1.07519426 23.79230504 1.0625 27.5625 C1.0574874 30.11132727 1.05292408 32.66015547 1.04882812 35.20898438 C1.03777444 41.47267633 1.02101821 47.73633399 1 54 C0.01 53.67 -0.98 53.34 -2 53 C-3.140625 50.26171875 -3.140625 50.26171875 -4.25 46.6875 C-10.17288998 28.83637683 -21.60519922 15.60867503 -38.38256836 7.08276367 C-59.85687248 -3.21221256 -85.36116704 -5.50315607 -108 2 C-111.14392864 3.12715664 -114.06107874 4.41664923 -117 6 C-118.19302734 6.62841797 -118.19302734 6.62841797 -119.41015625 7.26953125 C-126.07963078 11.01144664 -131.560383 15.64985038 -137 21 C-137.70125 21.68835938 -138.4025 22.37671875 -139.125 23.0859375 C-160.52029623 45.56771361 -164.81450879 77.35309327 -164.109375 106.98193359 C-163.11389841 134.45086565 -153.18903025 160.96502116 -133 180 C-118.63077823 192.23131181 -103.23699229 197.56684634 -84.5 197.375 C-83.36691406 197.38660156 -82.23382813 197.39820313 -81.06640625 197.41015625 C-64.93908551 197.3547359 -51.52668065 192.43819088 -39.3515625 181.83203125 C-32.55396187 173.64555209 -30.09043383 166.31144519 -30.2734375 155.76171875 C-30.27244049 154.63731888 -30.27144348 153.51291901 -30.27041626 152.35444641 C-30.27506509 149.99721135 -30.29432788 147.63996328 -30.32763672 145.28295898 C-30.37510835 141.67927496 -30.36870134 138.07852984 -30.35546875 134.47460938 C-30.36661552 132.17446158 -30.38083102 129.87432617 -30.3984375 127.57421875 C-30.39661469 126.50225754 -30.39479187 125.43029633 -30.39291382 124.32585144 C-30.50787427 118.2647393 -30.90850675 114.58991833 -35 110 C-39.7385711 106.80421949 -44.43716943 106.35849353 -50 106 C-50.33 104.68 -50.66 103.36 -51 102 C-21.96 102 7.08 102 37 102 C37 103.32 37 104.64 37 106 C36.27554688 106.04898438 35.55109375 106.09796875 34.8046875 106.1484375 C27.1389915 106.54992858 27.1389915 106.54992858 20 109 C18.18032831 113.27827697 17.74410014 116.98961641 17.7253418 121.609375 C17.71580978 122.90512451 17.70627777 124.20087402 17.69645691 125.53588867 C17.69671856 126.94059273 17.69765667 128.34529679 17.69921875 129.75 C17.69532443 131.21004354 17.69098827 132.67008596 17.68623352 134.13012695 C17.6787849 137.18981595 17.67905028 140.24938959 17.68432617 143.30908203 C17.69008385 147.1908715 17.67327383 151.07217805 17.6499815 154.95388794 C17.63508863 157.97233753 17.6343939 160.99067543 17.63749123 164.00915527 C17.63698461 165.43779446 17.63187382 166.86644104 17.62167931 168.29504395 C17.4645818 193.41201836 25.90665081 216.99485197 43.19140625 235.28125 C45.72952113 237.90045696 45.72952113 237.90045696 47.88256836 239.25830078 C50.99268986 241.42299256 52.75140905 242.82500147 53.55639648 246.62988281 C53.68883367 249.7402501 53.6116564 252.76697812 53.4375 255.875 C53.40591797 256.94492187 53.37433594 258.01484375 53.34179688 259.1171875 C53.25959543 261.74763365 53.14477691 264.37237854 53 267 C34.7336636 264.64052031 18.5251024 256.92255846 5.24609375 244.140625 C2.94163381 241.88552993 2.94163381 241.88552993 0.02734375 239.6015625 C-11.24358264 229.91583737 -19.42775548 215.00249885 -24 201 C-27.58349833 201.62832052 -30.99715056 202.58117229 -34.46850586 203.66308594 C-41.72142645 205.91244687 -48.99146061 207.75742065 -56.4375 209.25 C-57.2406665 209.41282471 -58.04383301 209.57564941 -58.87133789 209.7434082 C-94.5898411 216.65796989 -134.1641268 211.43492417 -165.26171875 191.95703125 C-167.9227964 190.05517689 -170.46710038 188.06873476 -173 186 C-173.90878906 185.30261719 -174.81757813 184.60523438 -175.75390625 183.88671875 C-197.69138267 166.70897296 -212.11942603 141.43710747 -215.71875 113.75 C-218.11831023 81.75586356 -212.31973421 52.45990413 -192 27 C-191.40960938 26.24460938 -190.81921875 25.48921875 -190.2109375 24.7109375 C-180.91667751 13.51827546 -168.72284792 5.74017217 -156 -1 C-154.79537109 -1.68835938 -154.79537109 -1.68835938 -153.56640625 -2.390625 C-111.50274605 -25.42722227 -41.76843698 -21.4151732 0 0 Z " fill="#F5F3F3" transform="translate(236,79)"/>
<path d="M0 0 C0 16.5 0 33 0 50 C-1.32 50 -2.64 50 -4 50 C-4.11214844 48.74896484 -4.11214844 48.74896484 -4.2265625 47.47265625 C-5.26720828 38.56595264 -7.10283322 32.00050244 -14.21875 26.1875 C-27.10685942 17.25174414 -38.58597813 18.71365312 -55 18 C-55 48.36 -55 78.72 -55 110 C-46.46125 109.896875 -37.9225 109.79375 -29.125 109.6875 C-26.44906738 109.66260498 -23.77313477 109.63770996 -21.01611328 109.61206055 C-18.86749577 109.57974041 -16.7188938 109.54636246 -14.5703125 109.51171875 C-12.93050415 109.50235291 -12.93050415 109.50235291 -11.25756836 109.49279785 C-0.72745159 109.29744489 7.42520661 107.60158433 15.15625 100.18359375 C17.8256369 97.02218003 19.00913032 93.97166771 20 90 C21 86.5625 21 86.5625 22 84 C22.99 83.67 23.98 83.34 25 83 C25 104.12 25 125.24 25 147 C23.68 147 22.36 147 21 147 C20.88785156 146.1646875 20.88785156 146.1646875 20.7734375 145.3125 C19.43884301 137.56661827 16.15810852 132.55336434 10.0625 127.625 C2.59864071 123.66458487 -4.40700308 123.66787976 -12.71484375 123.5859375 C-13.78899536 123.56829346 -14.86314697 123.55064941 -15.96984863 123.5324707 C-19.95891716 123.46969506 -23.94823004 123.42330761 -27.9375 123.375 C-36.868125 123.25125 -45.79875 123.1275 -55 123 C-55 152.04 -55 181.08 -55 211 C-38.4175 210.87625 -38.4175 210.87625 -21.5 210.75 C-18.04337891 210.73420898 -14.58675781 210.71841797 -11.02539062 210.70214844 C-7.85488972 210.66882173 -7.85488972 210.66882173 -4.68444824 210.63043213 C-3.30103987 210.61606933 -1.91754042 210.60905632 -0.53405762 210.60845947 C18.52514133 210.58621814 35.27773722 206.55107518 49.234375 192.89453125 C56.09237528 185.88997262 60.23333957 177.96205413 64 169 C64.76750426 167.26935313 65.53807589 165.54006148 66.3125 163.8125 C66.87548801 162.54188278 67.43818846 161.27113784 68 160 C68.99 160 69.98 160 71 160 C69.56723622 168.50288101 67.68605712 176.86418431 65.6875 185.25 C63.16703565 195.89238453 60.74507527 206.55004159 58.51049805 217.25683594 C58.32398682 218.13758789 58.13747559 219.01833984 57.9453125 219.92578125 C57.78562988 220.69317627 57.62594727 221.46057129 57.46142578 222.2512207 C57 224 57 224 56 225 C53.64712707 225.09763101 51.32365314 225.12997445 48.97032166 225.12025452 C47.85423022 225.12153615 47.85423022 225.12153615 46.71559149 225.12284368 C44.2035182 225.12450071 41.69151058 225.1189735 39.17944336 225.11352539 C37.38621523 225.11324354 35.59298698 225.11340121 33.79975891 225.1139679 C28.91566635 225.11425596 24.03159813 225.10835786 19.14751124 225.10139394 C14.0492342 225.09516181 8.95095666 225.09455671 3.85267639 225.09336853 C-5.80877159 225.0902548 -15.47020832 225.08204084 -25.13165134 225.07201904 C-36.12783623 225.06085921 -47.12402163 225.05534778 -58.12021077 225.05032361 C-80.74681343 225.03985826 -103.37340608 225.02225801 -126 225 C-126 223.68 -126 222.36 -126 221 C-125.20335937 220.90203125 -124.40671875 220.8040625 -123.5859375 220.703125 C-115.77672696 219.60109529 -110.63335247 218.48741273 -105.6875 211.9375 C-103.09394288 207.42278945 -102.85148979 203.81475827 -102.85282898 198.74568176 C-102.84915229 198.00147293 -102.8454756 197.2572641 -102.8416875 196.49050349 C-102.83064892 193.98951166 -102.82680652 191.48856138 -102.82299805 188.98754883 C-102.81673349 187.19715238 -102.8100867 185.40675724 -102.80308533 183.61636353 C-102.78204039 177.72992865 -102.77168207 171.8434935 -102.76171875 165.95703125 C-102.75767126 163.93054376 -102.75355434 161.90405641 -102.74936867 159.8775692 C-102.73031551 150.35641919 -102.71608512 140.83527694 -102.7077567 131.31411153 C-102.69798545 120.32494218 -102.67166935 109.33597432 -102.63125581 98.34687597 C-102.60108937 89.85249149 -102.58628729 81.35816475 -102.58297569 72.86372775 C-102.58062566 67.79072711 -102.5716714 62.7179417 -102.54651451 57.64499855 C-102.52321985 52.87037599 -102.5190062 48.09611014 -102.52927589 43.32144547 C-102.52977104 41.57194138 -102.52345694 39.82241966 -102.50971985 38.07296944 C-102.22053898 25.91813841 -102.22053898 25.91813841 -107 15 C-112.18146749 10.08424879 -119.20493723 9.33078381 -126 8 C-126 7.01 -126 6.02 -126 5 C-124.75988663 4.99413376 -123.51977325 4.98826752 -122.24208069 4.98222351 C-110.48905272 4.92472303 -98.73620494 4.8518215 -86.98336124 4.76428509 C-80.94277879 4.71977716 -74.90226076 4.68047907 -68.86157227 4.65356445 C-63.01940504 4.62733471 -57.17748838 4.58679678 -51.33547783 4.53681374 C-49.11948224 4.52027692 -46.90344345 4.50868137 -44.6873951 4.50238609 C-29.60629253 4.45525768 -14.59594711 0 0 0 Z " fill="#F5F2F2" transform="translate(402,147)"/>
<path d="M0 0 C29.04 0 58.08 0 88 0 C88 1.32 88 2.64 88 4 C86.91332031 4.07347656 86.91332031 4.07347656 85.8046875 4.1484375 C78.1389915 4.54992858 78.1389915 4.54992858 71 7 C69.19855615 11.2510424 68.73556122 14.96767044 68.68115234 19.55615234 C68.66128265 20.83702728 68.64141296 22.11790222 68.62094116 23.43759155 C68.60906748 24.82037178 68.59740447 26.20315384 68.5859375 27.5859375 C68.56721021 29.01226909 68.54763565 30.43858979 68.5272522 31.86489868 C68.47608959 35.60318556 68.43637945 39.3415083 68.39910889 43.07995605 C68.35896922 46.90104934 68.30792252 50.72199551 68.2578125 54.54296875 C68.16124138 62.02854463 68.07677703 69.51419214 68 77 C67.01 77 66.02 77 65 77 C65.33 54.56 65.66 32.12 66 9 C67.32 8.34 68.64 7.68 70 7 C70 6.34 70 5.68 70 5 C71.98 4.34 73.96 3.68 76 3 C54.88 3 33.76 3 12 3 C13.98 3.66 15.96 4.32 18 5 C17.67 6.32 17.34 7.64 17 9 C16.46890625 8.52949219 15.9378125 8.05898437 15.390625 7.57421875 C12.48343358 5.6598427 10.18260923 5.29754261 6.75 4.8125 C5.67234375 4.65394531 4.5946875 4.49539062 3.484375 4.33203125 C2.66453125 4.22246094 1.8446875 4.11289063 1 4 C0.67 2.68 0.34 1.36 0 0 Z " fill="#F9D0CC" transform="translate(185,181)"/>
<path d="M0 0 C0.433125 1.03125 0.86625 2.0625 1.3125 3.125 C3.473947 8.15079407 3.473947 8.15079407 6 13 C6.99 13.33 7.98 13.66 9 14 C11.72675159 11.59310197 13.11966596 9.07528977 14.6875 5.8125 C15.12449219 4.91144531 15.56148437 4.01039063 16.01171875 3.08203125 C16.33785156 2.39496094 16.66398437 1.70789063 17 1 C17.99 1 18.98 1 20 1 C22.55330579 6.59912742 24.89680715 12.21621965 27 18 C24.75 18.75 24.75 18.75 22 19 C19.875 17.0625 19.875 17.0625 18 15 C17.01 15 16.02 15 15 15 C14.64035156 15.65097656 14.28070313 16.30195313 13.91015625 16.97265625 C11.59905794 19.42553974 10.89180197 19.33532673 7.62109375 19.49609375 C5.89311929 19.49742194 4.16502159 19.47708106 2.4375 19.4375 C1.56158203 19.44458984 0.68566406 19.45167969 -0.21679688 19.45898438 C-5.0449328 19.41066585 -5.0449328 19.41066585 -7 19 C-9.45391569 15.31912647 -9.22802759 12.55644412 -9.125 8.3125 C-9.11597656 7.61060547 -9.10695313 6.90871094 -9.09765625 6.18554688 C-9.07413704 4.45688475 -9.03826713 2.72839855 -9 1 C-5.8035914 -0.06546953 -3.34252724 -0.07427838 0 0 Z " fill="#F1F1F2" transform="translate(128,397)"/>
<path d="M0 0 C25 0 25 0 34 3 C34 3.66 34 4.32 34 5 C32.02 4.34 30.04 3.68 28 3 C15.13 2.505 15.13 2.505 2 2 C2 31.04 2 60.08 2 90 C20.15 90 38.3 90 57 90 C53.11607621 91.9419619 51.81040852 92.24671623 47.68066406 92.22705078 C46.60510254 92.22680908 45.52954102 92.22656738 44.42138672 92.22631836 C43.29748535 92.21608643 42.17358398 92.20585449 41.015625 92.1953125 C39.97776855 92.19329834 38.93991211 92.19128418 37.87060547 92.18920898 C33.9970253 92.17875207 30.12350817 92.15082948 26.25 92.125 C17.5875 92.08375 8.925 92.0425 0 92 C0 61.64 0 31.28 0 0 Z " fill="#D7887D" transform="translate(347,165)"/>
<path d="M0 0 C3.05056103 2.03370735 3.81871137 3.35851715 4.8125 6.875 C5 10 5 10 4.375 13.1875 C3.68788218 15.95807373 3.68788218 15.95807373 5.1875 17.75 C7.06086993 19.04197926 8.9243437 20.06953338 11 21 C11 21.99 11 22.98 11 24 C5.45305725 23.52181528 2.00183087 22.50091544 -3 20 C-5.60021248 19.41233588 -8.19569396 18.9461396 -10.828125 18.52734375 C-13 18 -13 18 -15 16 C-14.69082121 10.74396052 -13.36148326 6.63214024 -11 2 C-7.31572341 -0.45618439 -4.27922232 -0.69019715 0 0 Z M-5 6 C-5 7.32 -5 8.64 -5 10 C-4.34 10.66 -3.68 11.32 -3 12 C-1.68 12 -0.36 12 1 12 C0.67 10.35 0.34 8.7 0 7 C-1.65 6.67 -3.3 6.34 -5 6 Z " fill="#F2F2F4" transform="translate(292,396)"/>
<path d="M0 0 C18.15 0 36.3 0 55 0 C55 0.33 55 0.66 55 1 C37.84 1 20.68 1 3 1 C2.67 29.38 2.34 57.76 2 87 C24.11 87 46.22 87 69 87 C69 87.33 69 87.66 69 88 C46.23 88 23.46 88 0 88 C0 58.96 0 29.92 0 0 Z " fill="#D38075" transform="translate(347,270)"/>
<path d="M0 0 C0.66 0 1.32 0 2 0 C2 18.15 2 36.3 2 55 C-3 56 -3 56 -6 55 C-6 56.98 -6 58.96 -6 61 C-7.485 61.495 -7.485 61.495 -9 62 C-8.67 62.99 -8.34 63.98 -8 65 C-4.70835171 65.02895225 -1.41673601 65.0467823 1.875 65.0625 C3.28072266 65.07506836 3.28072266 65.07506836 4.71484375 65.08789062 C5.61074219 65.09111328 6.50664062 65.09433594 7.4296875 65.09765625 C8.25710449 65.10289307 9.08452148 65.10812988 9.93701172 65.11352539 C12.06411757 65.13352138 12.06411757 65.13352138 14 64 C14 64.99 14 65.98 14 67 C6.08 67 -1.84 67 -10 67 C-11.79582712 62.21112769 -13.56319769 57.46679003 -15.1875 52.625 C-15.70376953 51.09746094 -15.70376953 51.09746094 -16.23046875 49.5390625 C-17 47 -17 47 -17 45 C-16.401875 45.33 -15.80375 45.66 -15.1875 46 C-12.94613529 47.20787988 -12.94613529 47.20787988 -10 47 C-9.34 47 -8.68 47 -8 47 C-8 47.66 -8 48.32 -8 49 C-7.34 49 -6.68 49 -6 49 C-6.495 48.13375 -6.495 48.13375 -7 47.25 C-8 45 -8 45 -8 41 C-8.66 40.67 -9.32 40.34 -10 40 C-10 37.69 -10 35.38 -10 33 C-7.42743028 36.12920761 -5.90063473 39.25611109 -4.375 43 C-3.94960937 44.03125 -3.52421875 45.0625 -3.0859375 46.125 C-2 49 -2 49 -1.4765625 51.3125 C-1.31929687 51.869375 -1.16203125 52.42625 -1 53 C-0.34 53.33 0.32 53.66 1 54 C0.67 36.18 0.34 18.36 0 0 Z " fill="#DA7C6F" transform="translate(236,79)"/>
<path d="M0 0 C2.69516514 2.80162696 2.67645745 5.74384176 2.94140625 9.453125 C3.33960009 15.38894066 3.33960009 15.38894066 6.87890625 19.953125 C6.87890625 21.273125 6.87890625 22.593125 6.87890625 23.953125 C3.77072799 23.60777186 2.28929445 23.42431145 0.19140625 21.015625 C-2.46168554 18.64935394 -3.62102541 18.57138555 -7.05859375 18.078125 C-10.607207 17.47444079 -12.81250128 16.92298187 -15.30859375 14.265625 C-17.12109375 10.953125 -17.12109375 10.953125 -17.18359375 7.328125 C-16.04017659 3.69609402 -15.1530807 2.20545816 -12.12109375 -0.046875 C-8.23134568 -1.60277423 -3.78839337 -1.86977794 0 0 Z M-9.93359375 2.953125 C-11.78544855 6.07203835 -11.55663632 8.40656405 -11.12109375 11.953125 C-9.26688536 14.39411318 -9.26688536 14.39411318 -7.12109375 15.953125 C-3.99850517 15.277467 -3.99850517 15.277467 -2.87109375 12.828125 C-1.93857223 9.25345917 -2.41622411 6.54796017 -3.12109375 2.953125 C-6.610546 1.8461933 -6.610546 1.8461933 -9.93359375 2.953125 Z " fill="#F1F1F1" transform="translate(31.12109375,398.046875)"/>
<path d="M0 0 C3.72705022 0.1380389 6.19518078 0.41874167 9.25 2.625 C12.04046573 6.41206063 13.52221414 10.56664243 15 15 C11.98516816 18.56656577 8.9122284 19.06190889 4.44921875 19.84375 C2 20 2 20 -1.0625 18.875 C-3.21544975 16.79150024 -3.91227433 15.98267282 -4 13 C-3.3409159 11.33032028 -2.67349161 9.66392045 -2 8 C-2 6.948125 -2 5.89625 -2 4.8125 C-2 2 -2 2 0 0 Z " fill="#F3F3F5" transform="translate(314,396)"/>
<path d="M0 0 C4.99370518 0.25391721 4.99370518 0.25391721 7.6875 2.1875 C8.953125 5.0078125 8.953125 5.0078125 9.9375 8.3125 C10.27265625 9.40820312 10.6078125 10.50390625 10.953125 11.6328125 C11.31664062 12.89738281 11.31664062 12.89738281 11.6875 14.1875 C9.00705841 17.20223703 7.30114562 18.73815283 3.25 19.1875 C2.50878906 19.290625 1.76757812 19.39375 1.00390625 19.5 C-2.49334563 19.02819536 -3.98641225 17.80591476 -6.3125 15.1875 C-6.3984375 11.76953125 -6.3984375 11.76953125 -5.6875 8 C-5.46835938 6.74832031 -5.24921875 5.49664062 -5.0234375 4.20703125 C-4.08738064 0.23136117 -4.08738064 0.23136117 0 0 Z M1.6875 10.1875 C2.6875 12.1875 2.6875 12.1875 2.6875 12.1875 Z " fill="#F0F0F1" transform="translate(210.3125,396.8125)"/>
<path d="M0 0 C1.33998047 0.31324219 1.33998047 0.31324219 2.70703125 0.6328125 C3.60808594 0.83648437 4.50914062 1.04015625 5.4375 1.25 C6.46810547 1.50136719 6.46810547 1.50136719 7.51953125 1.7578125 C8.90133959 5.17169192 9.64189336 7.15823817 8.89453125 10.8203125 C8.17053502 13.92169095 8.17053502 13.92169095 10.45703125 16.6328125 C11.13765625 17.3340625 11.81828125 18.0353125 12.51953125 18.7578125 C8.96659632 19.90729145 7.71976456 19.8447062 4.20703125 18.3203125 C3.32015625 17.8046875 2.43328125 17.2890625 1.51953125 16.7578125 C1.51953125 17.4178125 1.51953125 18.0778125 1.51953125 18.7578125 C-2.23046875 19.8828125 -2.23046875 19.8828125 -4.48046875 18.7578125 C-4.72850656 15.96664005 -4.95461209 13.17666176 -5.16796875 10.3828125 C-5.24080078 9.58875 -5.31363281 8.7946875 -5.38867188 7.9765625 C-5.5546875 5.671875 -5.5546875 5.671875 -5.48046875 1.7578125 C-2.48046875 -0.2421875 -2.48046875 -0.2421875 0 0 Z " fill="#F2F2F3" transform="translate(337.48046875,396.2421875)"/>
<path d="M0 0 C2.475 0.99 2.475 0.99 5 2 C5 2.66 5 3.32 5 4 C5.721875 3.484375 6.44375 2.96875 7.1875 2.4375 C10.4195366 0.78557018 11.61608307 0.93648325 15 2 C13.25 5.875 13.25 5.875 11 7 C11 9.31 11 11.62 11 14 C12.32 14.66 13.64 15.32 15 16 C15 17.32 15 18.64 15 20 C10.55129785 20.39253254 7.85756507 19.15305957 4 17 C4 17.66 4 18.32 4 19 C2.35 19 0.7 19 -1 19 C-2.09583341 15.44073308 -2.16655685 12.08612704 -2.1875 8.375 C-2.20167969 7.22773438 -2.21585937 6.08046875 -2.23046875 4.8984375 C-2 2 -2 2 0 0 Z " fill="#F2F2F2" transform="translate(395,396)"/>
<path d="M0 0 C4.0226217 1.56435288 5.59149109 2.38723663 8 6 C8.50418234 10.63847757 7.77954397 13.25830619 5 17 C2.25494537 18.37252731 -0.00327412 18.13229255 -3.0625 18.125 C-4.68865234 18.12886719 -4.68865234 18.12886719 -6.34765625 18.1328125 C-9 18 -9 18 -10 17 C-10.07319621 14.30345146 -10.09242537 11.63308542 -10.0625 8.9375 C-10.05798828 8.17888672 -10.05347656 7.42027344 -10.04882812 6.63867188 C-10.0370068 4.75908129 -10.01907078 2.87953101 -10 1 C-6.80238831 -0.59880585 -3.47853047 -0.36854319 0 0 Z M-4 4 C-5.18496548 8.89895217 -5.18496548 8.89895217 -3.5625 13.4375 C-3.046875 13.953125 -2.53125 14.46875 -2 15 C-1.01 14.67 -0.02 14.34 1 14 C2.19988045 8.71800407 2.19988045 8.71800407 0 4 C-1.32 4 -2.64 4 -4 4 Z " fill="#F2F2F2" transform="translate(255,397)"/>
<path d="M0 0 C35.97 0 71.94 0 109 0 C108.67 0.66 108.34 1.32 108 2 C106.69121384 2.00364563 105.38242767 2.00729126 104.03398132 2.01104736 C91.71735222 2.04794208 79.40097443 2.10565411 67.08453655 2.18390274 C60.75206634 2.22346084 54.41973693 2.25560844 48.0871582 2.27099609 C41.97916673 2.28610774 35.87156213 2.32045547 29.76374245 2.36830902 C27.43011647 2.38317961 25.09643528 2.39104424 22.76276207 2.39188385 C19.50116799 2.39423816 16.24065656 2.42119447 12.97924805 2.45410156 C12.00820633 2.4490712 11.03716461 2.44404083 10.03669739 2.43885803 C4.94047707 2.35049647 4.94047707 2.35049647 0.876297 5.03411865 C0.58711899 5.6828595 0.29794098 6.33160034 0 7 C0 4.69 0 2.38 0 0 Z " fill="#CB7268" transform="translate(173,169)"/>
<path d="M0 0 C0.90492188 0.02320313 1.80984375 0.04640625 2.7421875 0.0703125 C4.10730469 0.09738281 4.10730469 0.09738281 5.5 0.125 C6.19867188 0.14820313 6.89734375 0.17140625 7.6171875 0.1953125 C8.48459205 4.10598388 8.92608851 7.95343383 9.2421875 11.9453125 C9.33757812 13.09515625 9.43296875 14.245 9.53125 15.4296875 C9.55960938 16.34234375 9.58796875 17.255 9.6171875 18.1953125 C9.2871875 18.5253125 8.9571875 18.8553125 8.6171875 19.1953125 C6.78071008 19.13138449 4.94647858 18.99475521 3.1171875 18.8203125 C2.116875 18.73007812 1.1165625 18.63984375 0.0859375 18.546875 C-2.3828125 18.1953125 -2.3828125 18.1953125 -3.3828125 17.1953125 C-3.67350086 14.70831211 -3.89750121 12.25320757 -4.0703125 9.7578125 C-4.13025391 9.06365234 -4.19019531 8.36949219 -4.25195312 7.65429688 C-4.38026184 5.83864069 -4.38901059 4.01548614 -4.3828125 2.1953125 C-2.3828125 0.1953125 -2.3828125 0.1953125 0 0 Z " fill="#F3F3F5" transform="translate(229.3828125,396.8046875)"/>
<path d="M0 0 C0.82850978 2.48552935 1.03523231 3.84732665 0.4375 6.4375 C-0.10180619 9.59629341 0.80405091 11.08487409 2 14 C1.5625 16.15234375 1.5625 16.15234375 1 18 C-0.79008467 18.22151549 -2.58218162 18.42682213 -4.375 18.625 C-5.37273437 18.74101562 -6.37046875 18.85703125 -7.3984375 18.9765625 C-8.25695312 18.98429687 -9.11546875 18.99203125 -10 19 C-12 17 -12 17 -12.1953125 13.3046875 C-12.182009 11.82799892 -12.15814835 10.35137642 -12.125 8.875 C-12.11146484 7.74384766 -12.11146484 7.74384766 -12.09765625 6.58984375 C-12.0740687 4.72642746 -12.03819719 2.86317407 -12 1 C-7.92507503 0.27518842 -4.14330288 -0.09865007 0 0 Z " fill="#F2F2F3" transform="translate(75,397)"/>
<path d="M0 0 C0.99 0.33 1.98 0.66 3 1 C2.67 5.62 2.34 10.24 2 15 C2.66 15 3.32 15 4 15 C3.67 16.32 3.34 17.64 3 19 C1.56359829 19.19573608 0.12580496 19.38127816 -1.3125 19.5625 C-2.11300781 19.66691406 -2.91351563 19.77132813 -3.73828125 19.87890625 C-6 20 -6 20 -9 19 C-9 13.06 -9 7.12 -9 1 C-6.01002175 -0.49498913 -3.29957225 -0.11577446 0 0 Z " fill="#F5F5F7" transform="translate(363,396)"/>
<path d="M0 0 C0.33 0 0.66 0 1 0 C1.9104464 4.95687482 2.06617088 9.05684409 1 14 C-1.4407156 16.4407156 -2.7437853 16.23760013 -6.07401574 16.25816262 C-6.78412454 16.25233693 -7.49423334 16.24651125 -8.2258606 16.24050903 C-9.35548432 16.24307231 -9.35548432 16.24307231 -10.50792873 16.24568737 C-13.04460629 16.24899537 -15.58102238 16.2379572 -18.11767578 16.22705078 C-19.93075555 16.22648695 -21.74383578 16.22680268 -23.55691528 16.22793579 C-28.4905635 16.2285114 -33.42411517 16.2167235 -38.35774088 16.20278788 C-43.50939353 16.19031512 -48.6610482 16.18911275 -53.81271362 16.18673706 C-63.57330904 16.18051211 -73.33385984 16.16408759 -83.09443557 16.14403808 C-94.20430061 16.12171062 -105.31416774 16.1106936 -116.42404962 16.10064721 C-139.28272451 16.07972222 -162.14135976 16.04452657 -185 16 C-185 15.67 -185 15.34 -185 15 C-124.94 14.67 -64.88 14.34 -3 14 C-2.01 9.38 -1.02 4.76 0 0 Z " fill="#D17368" transform="translate(461,357)"/>
<path d="M0 0 C1.2039337 3.75399798 1.09877617 7.33217412 1.0625 11.25 C1.05347656 12.51328125 1.04445312 13.7765625 1.03515625 15.078125 C1.02355469 16.04234375 1.01195312 17.0065625 1 18 C-0.60115576 18.2493357 -2.20620159 18.47378648 -3.8125 18.6875 C-4.70582031 18.81511719 -5.59914062 18.94273437 -6.51953125 19.07421875 C-9 19 -9 19 -10.80859375 17.9296875 C-12.56692116 15.08177359 -12.32404425 12.75098005 -12.25 9.4375 C-12.23453125 8.28121094 -12.2190625 7.12492187 -12.203125 5.93359375 C-12 3 -12 3 -11 1 C-7.318488 -0.05186057 -3.80944893 -0.08859184 0 0 Z " fill="#F2F1F3" transform="translate(189,397)"/>
<path d="M0 0 C1.65 0.33 3.3 0.66 5 1 C4.98839844 1.75925781 4.97679687 2.51851563 4.96484375 3.30078125 C4.95582031 4.29464844 4.94679688 5.28851563 4.9375 6.3125 C4.92589844 7.29863281 4.91429687 8.28476562 4.90234375 9.30078125 C4.87670138 12.09963849 4.87670138 12.09963849 6 15 C6.99 15 7.98 15 9 15 C10.00259507 11.99221479 10.30314642 9.46179353 10.5625 6.3125 C10.64628906 5.31863281 10.73007812 4.32476562 10.81640625 3.30078125 C10.87699219 2.54152344 10.93757813 1.78226562 11 1 C11.99 0.67 12.98 0.34 14 0 C14.99 0.66 15.98 1.32 17 2 C16.34674175 14.86242961 16.34674175 14.86242961 13 18 C8.59590094 19.41985433 5.22573979 19.56179741 1 17.625 C-1.82868638 13.91234913 -2.17497382 10.60499274 -2 6 C-1.0625 2.4375 -1.0625 2.4375 0 0 Z " fill="#F1F1F1" transform="translate(41,397)"/>
<path d="M0 0 C3.13349773 3.13349773 3.1158803 5.91083769 3.12908131 10.17692393 C3.12616847 10.88022894 3.12325563 11.58353396 3.12025452 12.30815125 C3.12153615 13.43293128 3.12153615 13.43293128 3.12284368 14.58043414 C3.12449449 17.10011495 3.11898362 19.61972959 3.11352539 22.1394043 C3.11324341 23.94277953 3.11340147 25.74615487 3.1139679 27.54953003 C3.11425543 32.4520986 3.10836572 37.35464282 3.10139394 42.25720572 C3.09515317 47.37815971 3.09455603 52.49911421 3.09336853 57.62007141 C3.09025736 67.32041034 3.08204683 77.02073804 3.07201904 86.72107202 C3.06085128 97.76325162 3.05534578 108.80543176 3.05032361 119.8476156 C3.03986406 142.5650833 3.02226873 165.28254102 3 188 C2.67 188 2.34 188 2 188 C2 128.27 2 68.54 2 7 C1.34 7 0.68 7 0 7 C0 4.69 0 2.38 0 0 Z " fill="#CD7464" transform="translate(297,165)"/>
<path d="M0 0 C0.66 0 1.32 0 2 0 C2 21.12 2 42.24 2 64 C0.68 64 -0.64 64 -2 64 C-2.12117188 63.40832031 -2.24234375 62.81664062 -2.3671875 62.20703125 C-3.26744643 57.96196415 -4.20456621 53.97560339 -6 50 C-5.34 50 -4.68 50 -4 50 C-3.67 50.66 -3.34 51.32 -3 52 C-2.34 52 -1.68 52 -1 52 C-1 38.14 -1 24.28 -1 10 C-1.66 11.65 -2.32 13.3 -3 15 C-3.66 15 -4.32 15 -5 15 C-4.55065113 12.87308203 -4.09023527 10.74849961 -3.625 8.625 C-3.36976563 7.44164062 -3.11453125 6.25828125 -2.8515625 5.0390625 C-2 2 -2 2 0 0 Z " fill="#FDEEEA" transform="translate(425,230)"/>
<path d="M0 0 C1.21236328 0.04060547 1.21236328 0.04060547 2.44921875 0.08203125 C3.06410156 0.11683594 3.67898438 0.15164063 4.3125 0.1875 C4.3125 1.5075 4.3125 2.8275 4.3125 4.1875 C2.3325 4.1875 0.3525 4.1875 -1.6875 4.1875 C-0.924375 4.909375 -0.16125 5.63125 0.625 6.375 C3.02383591 8.88540967 4.66660221 11.15558302 6.3125 14.1875 C5.375 16.125 5.375 16.125 3.3125 18.1875 C0.3266919 18.84924825 -2.63611869 19.05955948 -5.6875 19.1875 C-6.3475 18.1975 -7.0075 17.2075 -7.6875 16.1875 C-7.0275 15.5275 -6.3675 14.8675 -5.6875 14.1875 C-5.97733269 10.88066534 -5.97733269 10.88066534 -7.6875 8.1875 C-8.14826844 3.81019984 -8.14826844 3.81019984 -6.46484375 1.53515625 C-4.16667456 -0.2074116 -2.84893333 -0.12386667 0 0 Z " fill="#EDEDED" transform="translate(460.6875,396.8125)"/>
<path d="M0 0 C0.82638376 2.89234315 1 4.88742431 1 8 C1.99 9.485 1.99 9.485 3 11 C2.84749525 14.050095 2.42301114 15.52817988 0.375 17.8125 C-2.8313755 19.41568775 -5.46750852 19.20379759 -9 19 C-9 17.68 -9 16.36 -9 15 C-8.34 14.67 -7.68 14.34 -7 14 C-7.309375 13.484375 -7.61875 12.96875 -7.9375 12.4375 C-9.29059287 9.33334577 -9.61359424 6.34884993 -10 3 C-6.68152292 -0.06320961 -4.44849969 -0.3033068 0 0 Z " fill="#F0F0F2" transform="translate(169,397)"/>
<path d="M0 0 C0.66 0 1.32 0 2 0 C2 29.04 2 58.08 2 88 C1.67 87.34 1.34 86.68 1 86 C0.34 85.67 -0.32 85.34 -1 85 C-1.02312297 74.06503529 -1.04091485 63.13007634 -1.05181217 52.1950922 C-1.0570411 47.11808982 -1.06413892 42.04110411 -1.07543945 36.96411133 C-1.08626799 32.06879448 -1.09227676 27.17349371 -1.09487724 22.27816582 C-1.09673155 20.40617049 -1.10035228 18.53417609 -1.10573006 16.66218758 C-1.11294004 14.04959301 -1.11399096 11.43706573 -1.11352539 8.82446289 C-1.11712067 8.04259613 -1.12071594 7.26072937 -1.12442017 6.45516968 C-1.11405216 1.11405216 -1.11405216 1.11405216 0 0 Z " fill="#FBEFEA" transform="translate(345,270)"/>
<path d="M0 0 C3 1 3 1 4.02734375 2.890625 C4.32769531 3.66921875 4.62804687 4.4478125 4.9375 5.25 C6.18870524 8.31011823 7.17679015 10.21501505 9.3125 12.8125 C11 15 11 15 10.75 17.3125 C10.5025 17.869375 10.255 18.42625 10 19 C7.1875 19.25 7.1875 19.25 4 19 C2.25 17 2.25 17 1 15 C0.34 15 -0.32 15 -1 15 C-1.680625 15.99 -1.680625 15.99 -2.375 17 C-2.91125 17.66 -3.4475 18.32 -4 19 C-5.32 19 -6.64 19 -8 19 C-7.37889888 16.14166732 -6.48383222 13.77349466 -5.125 11.1875 C-3.23908259 7.51890883 -1.5863139 3.80715336 0 0 Z " fill="#F1F1F1" transform="translate(439,397)"/>
<path d="M0 0 C0.33 1.32 0.66 2.64 1 4 C0.01 4.66 -0.98 5.32 -2 6 C-1.175 6.721875 -0.35 7.44375 0.5 8.1875 C3 11 3 11 3.5 13.6875 C3 16 3 16 0 18 C-2.26171875 18.4140625 -2.26171875 18.4140625 -4.6875 18.625 C-5.49574219 18.69976562 -6.30398437 18.77453125 -7.13671875 18.8515625 C-8.05904297 18.92503906 -8.05904297 18.92503906 -9 19 C-9 17.68 -9 16.36 -9 15 C-8.01 15 -7.02 15 -6 15 C-6.680625 13.96875 -7.36125 12.9375 -8.0625 11.875 C-9.67901743 9.04896066 -10.00146662 8.0777311 -9.9375 4.6875 C-8.13682835 -0.4744254 -4.84614344 -0.21538415 0 0 Z " fill="#EEEFEE" transform="translate(91,397)"/>
<path d="M0 0 C1.51400391 0.01740234 1.51400391 0.01740234 3.05859375 0.03515625 C4.07050781 0.04417969 5.08242188 0.05320312 6.125 0.0625 C7.29869141 0.07990234 7.29869141 0.07990234 8.49609375 0.09765625 C9.60546875 3.83984375 9.60546875 3.83984375 8.62109375 6.16015625 C8.24984375 6.79953125 7.87859375 7.43890625 7.49609375 8.09765625 C7.16609375 9.08765625 6.83609375 10.07765625 6.49609375 11.09765625 C5.50609375 11.59265625 5.50609375 11.59265625 4.49609375 12.09765625 C4.20734375 13.08765625 3.91859375 14.07765625 3.62109375 15.09765625 C2.49609375 18.09765625 2.49609375 18.09765625 0.49609375 19.03515625 C-1.50390625 19.09765625 -1.50390625 19.09765625 -3.50390625 18.09765625 C-3.53074937 15.28509344 -3.55066813 12.47278384 -3.56640625 9.66015625 C-3.57478516 8.85771484 -3.58316406 8.05527344 -3.59179688 7.22851562 C-3.60042055 5.18470404 -3.55618775 3.14081723 -3.50390625 1.09765625 C-2.50390625 0.09765625 -2.50390625 0.09765625 0 0 Z " fill="#F5F5F5" transform="translate(418.50390625,396.90234375)"/>
<path d="M0 0 C0.99 0.33 1.98 0.66 3 1 C3.84375 2.890625 3.84375 2.890625 4.5 5.25 C5.36772488 8.16241701 6.12580086 10.20217995 7.75 12.8125 C9 15 9 15 8.6875 17.3125 C8.460625 17.869375 8.23375 18.42625 8 19 C6.35 18.67 4.7 18.34 3 18 C2.67 16.68 2.34 15.36 2 14 C-1.72614153 15.11854586 -1.72614153 15.11854586 -4 18 C-5.32 18 -6.64 18 -8 18 C-7.53563783 13.00810664 -6.15300977 10.80215884 -3 7 C-1.85714839 4.70469298 -0.93769184 2.39111419 0 0 Z " fill="#EFEFF0" transform="translate(379,397)"/>
<path d="M0 0 C4.95 0 9.9 0 15 0 C15 1.32 15 2.64 15 4 C13.68 4.33 12.36 4.66 11 5 C11 9.29 11 13.58 11 18 C9.35 18.33 7.7 18.66 6 19 C4.12175109 17.12175109 4.60897603 13.96064724 4.4375 11.4375 C4.35371094 10.23996094 4.26992188 9.04242188 4.18359375 7.80859375 C4.12300781 6.88175781 4.06242187 5.95492188 4 5 C1.525 4.01 1.525 4.01 -1 3 C-0.67 2.01 -0.34 1.02 0 0 Z " fill="#F2F2F2" transform="translate(470,397)"/>
<path d="M0 0 C0.99 0 1.98 0 3 0 C2.83923477 0.69212082 2.67846954 1.38424164 2.51283264 2.09733582 C1.95420363 5.25921027 1.83900621 8.23197857 1.79467773 11.44262695 C1.77473251 12.72357742 1.75478729 14.00452789 1.73423767 15.32429504 C1.71725722 16.71228924 1.70037827 18.10028467 1.68359375 19.48828125 C1.66300576 20.91603675 1.64200882 22.34378641 1.62062073 23.77153015 C1.56559047 27.51806895 1.51609773 31.26466101 1.46777344 35.0112915 C1.41741879 38.83895574 1.36180582 42.66654323 1.30664062 46.49414062 C1.19929224 53.99602863 1.09779613 61.49798074 1 69 C0.01 69 -0.98 69 -2 69 C-1.89265501 60.15109114 -1.780054 51.30226961 -1.66066074 42.45351505 C-1.60539417 38.34509583 -1.55196835 34.23666954 -1.50268555 30.12817383 C-1.45509687 26.16646874 -1.40275633 22.20485282 -1.34705925 18.24325371 C-1.32661069 16.72854253 -1.30790183 15.21380688 -1.29092598 13.69905281 C-1.26693701 11.58451574 -1.2368755 9.47014865 -1.20532227 7.35571289 C-1.18977798 6.14992081 -1.1742337 4.94412872 -1.15821838 3.70179749 C-1 1 -1 1 0 0 Z " fill="#FDDDD8" transform="translate(252,189)"/>
<path d="M0 0 C3.28859398 2.60156181 3.74471825 5.23118681 4.5625 9.25 C5.55035445 13.90331438 6.62388734 18.44824273 8 23 C9.32 23 10.64 23 12 23 C12.33 22.01 12.66 21.02 13 20 C13.66 19.67 14.32 19.34 15 19 C16.13350534 16.98330173 16.13350534 16.98330173 17 15 C17.66 16.98 18.32 18.96 19 21 C16.525 22.485 16.525 22.485 14 24 C14.45052734 25.69769531 14.45052734 25.69769531 14.91015625 27.4296875 C15.29464146 28.91136221 15.67873584 30.39313837 16.0625 31.875 C16.26166016 32.62136719 16.46082031 33.36773437 16.66601562 34.13671875 C18.11328125 39.7734375 18.11328125 39.7734375 17 42 C9.12862366 30.15297927 0 14.66472322 0 0 Z " fill="#D87466" transform="translate(254,264)"/>
<path d="M0 0 C1.299375 -0.03867187 1.299375 -0.03867187 2.625 -0.078125 C5.42903194 0.30927415 6.26286782 1.07858478 8 3.25 C6.35 3.91 4.7 4.57 3 5.25 C3.02320312 5.92546875 3.04640625 6.6009375 3.0703125 7.296875 C3.09738281 8.63492187 3.09738281 8.63492187 3.125 10 C3.14820312 10.88171875 3.17140625 11.7634375 3.1953125 12.671875 C2.99139502 15.3635858 2.36551721 16.94904974 1 19.25 C-0.953125 18.6328125 -0.953125 18.6328125 -3 17.25 C-3.609375 14.4296875 -3.609375 14.4296875 -3.75 11.125 C-3.83507812 9.48144531 -3.83507812 9.48144531 -3.921875 7.8046875 C-3.96054688 6.54011719 -3.96054688 6.54011719 -4 5.25 C-5.32 4.92 -6.64 4.59 -8 4.25 C-8 3.26 -8 2.27 -8 1.25 C-5.09458095 0.28152698 -3.03362546 0.05417188 0 0 Z " fill="#F0F0F0" transform="translate(106,396.75)"/>
<path d="M0 0 C0.66 0 1.32 0 2 0 C2 19.47 2 38.94 2 59 C-0.60067263 56.39932737 -0.27473614 55.27267039 -0.3347168 51.64819336 C-0.35781418 50.53041 -0.38091156 49.41262665 -0.40470886 48.26097107 C-0.41939713 47.04949905 -0.43408539 45.83802704 -0.44921875 44.58984375 C-0.47095657 43.3520668 -0.4926944 42.11428986 -0.51509094 40.83900452 C-0.57034811 37.54655168 -0.61653078 34.25412174 -0.65917969 30.96148682 C-0.70612655 27.60630369 -0.7695932 24.25144981 -0.83007812 20.89648438 C-0.87073084 18.35678569 -0.91047529 15.81707228 -0.94921875 13.27734375 C-0.96997971 12.0638475 -0.99074066 10.85035126 -1.01213074 9.6000824 C-1.02577164 8.4854512 -1.03941254 7.37082001 -1.0534668 6.22241211 C-1.06741989 5.23583115 -1.08137299 4.24925018 -1.0957489 3.23277283 C-1 1 -1 1 0 0 Z " fill="#CC7366" transform="translate(263,197)"/>
<path d="M0 0 C0.33 0 0.66 0 1 0 C1 17.49 1 34.98 1 53 C0.01 52.67 -0.98 52.34 -2 52 C-3.140625 49.26171875 -3.140625 49.26171875 -4.25 45.6875 C-6.59176879 38.52901246 -10.01101554 32.39095359 -14 26 C-14.33 25.34 -14.66 24.68 -15 24 C-14.01 24.33 -13.02 24.66 -12 25 C-12 25.66 -12 26.32 -12 27 C-11.34 27 -10.68 27 -10 27 C-9.71125 27.61875 -9.4225 28.2375 -9.125 28.875 C-8.06279958 31.13325765 -8.06279958 31.13325765 -6 33 C-6.33 33.66 -6.66 34.32 -7 35 C-6.34 35 -5.68 35 -5 35 C-4.01 37.97 -3.02 40.94 -2 44 C-1.67 44 -1.34 44 -1 44 C-0.67 29.48 -0.34 14.96 0 0 Z " fill="#FDE9E4" transform="translate(236,80)"/>
<path d="M0 0 C-0.33 0.66 -0.66 1.32 -1 2 C-30.04 2 -59.08 2 -89 2 C-89 2.99 -89 3.98 -89 5 C-89.66 5 -90.32 5 -91 5 C-90.67 3.68 -90.34 2.36 -90 1 C-89.00219513 0.98969254 -88.00439026 0.97938507 -86.97634888 0.96876526 C-77.58800967 0.87114786 -68.19973847 0.76842499 -58.81151009 0.66066074 C-53.98455238 0.60541902 -49.15758863 0.55199702 -44.33056641 0.50268555 C-39.67509448 0.45506043 -35.01969761 0.4027183 -30.36431503 0.34705925 C-28.5852736 0.32662729 -26.80621158 0.30791561 -25.02713394 0.29092598 C-22.54161359 0.26690057 -20.05623576 0.23684354 -17.57080078 0.20532227 C-16.45949799 0.19668907 -16.45949799 0.19668907 -15.32574463 0.18788147 C-0.21348609 -0.03098992 -0.21348609 -0.03098992 0 0 Z " fill="#D27264" transform="translate(274,179)"/>
<path d="M0 0 C8.91 0 17.82 0 27 0 C26.67 2.64 26.34 5.28 26 8 C23.525 7.505 23.525 7.505 21 7 C21 6.34 21 5.68 21 5 C22.32 5 23.64 5 25 5 C25 4.01 25 3.02 25 2 C16.75 2 8.5 2 0 2 C0.66 4.31 1.32 6.62 2 9 C1.01 9.66 0.02 10.32 -1 11 C-1.33 11.99 -1.66 12.98 -2 14 C-2.99 14.33 -3.98 14.66 -5 15 C-4.54705135 13.24859857 -4.08741252 11.49892656 -3.625 9.75 C-3.36976563 8.77546875 -3.11453125 7.8009375 -2.8515625 6.796875 C-2 4 -2 4 0 0 Z " fill="#CD7067" transform="translate(461,295)"/>
<path d="M0 0 C0.99 0 1.98 0 3 0 C1.36817921 9.74798208 -0.81637316 19.36448155 -3 29 C-3.33 29 -3.66 29 -4 29 C-4 25.7 -4 22.4 -4 19 C-5.32 18.67 -6.64 18.34 -8 18 C-7.04317245 15.74934904 -6.08459556 13.49947051 -5.125 11.25 C-4.85558594 10.61578125 -4.58617187 9.9815625 -4.30859375 9.328125 C-2.95974696 6.16984958 -1.58525165 3.04737696 0 0 Z " fill="#FCE0DA" transform="translate(470,307)"/>
<path d="M0 0 C0.33 0 0.66 0 1 0 C1 17.82 1 35.64 1 54 C-0.65 53.67 -2.3 53.34 -4 53 C-5.09936919 50.80126161 -5.26512754 49.24930181 -5.5 46.8125 C-5.90338649 42.85547065 -6.41409979 38.93390138 -7 35 C-5 36 -5 36 -4.37890625 37.765625 C-3.97600382 40.14150323 -3.90208522 42.34179517 -3.9375 44.75 C-3.94652344 45.54921875 -3.95554687 46.3484375 -3.96484375 47.171875 C-3.97644531 47.77515625 -3.98804688 48.3784375 -4 49 C-2.68 49 -1.36 49 0 49 C0 32.83 0 16.66 0 0 Z " fill="#D07469" transform="translate(402,148)"/>
<path d="M0 0 C4.11332505 4.05371164 8.01767279 8.26040079 11.89453125 12.5390625 C14.84764771 15.78333129 17.87515388 18.9204415 21 22 C19.68 21.67 18.36 21.34 17 21 C17 20.34 17 19.68 17 19 C13.04 19.495 13.04 19.495 9 20 C8.67 21.32 8.34 22.64 8 24 C6.68 23.67 5.36 23.34 4 23 C4.495 22.38125 4.99 21.7625 5.5 21.125 C7.19222773 19.16119096 7.19222773 19.16119096 7 17 C7.66 16.67 8.32 16.34 9 16 C8.34 13.69 7.68 11.38 7 9 C6.01 9 5.02 9 4 9 C0 2.25 0 2.25 0 0 Z " fill="#D87164" transform="translate(39,241)"/>
<path d="M0 0 C0.33 0 0.66 0 1 0 C1.11580443 8.03189067 1.20466834 16.06343316 1.25906086 24.09595203 C1.28516566 27.82574237 1.32057743 31.554962 1.37719727 35.28442383 C1.4314892 38.88303426 1.46141389 42.48109552 1.47438622 46.08008385 C1.48363151 47.45369809 1.50168603 48.82728194 1.52865028 50.20066261 C1.564891 52.12281655 1.56704194 54.04552211 1.56762695 55.96801758 C1.57873001 57.06277908 1.58983307 58.15754059 1.60127258 59.28547668 C1 62 1 62 -1.53547668 63.8769989 C-2.75541573 64.43288445 -2.75541573 64.43288445 -4 65 C-5.81115956 63.18884044 -5.38199448 60.38721773 -5.5625 57.9375 C-5.64628906 56.83277344 -5.73007812 55.72804688 -5.81640625 54.58984375 C-5.87699219 53.73519531 -5.93757813 52.88054687 -6 52 C-3.87491756 55.18762365 -3.4979837 57.26512223 -3 61 C-2.34 61 -1.68 61 -1 61 C-0.67 40.87 -0.34 20.74 0 0 Z " fill="#D17369" transform="translate(427,233)"/>
<path d="M0 0 C0.75042068 0.0028299 1.50084137 0.00565979 2.27400208 0.00857544 C4.668508 0.01976188 7.06263856 0.04486322 9.45703125 0.0703125 C11.0813748 0.08034431 12.70572422 0.08946981 14.33007812 0.09765625 C18.31004025 0.11969613 22.28972213 0.1542151 26.26953125 0.1953125 C26.26953125 0.8553125 26.26953125 1.5153125 26.26953125 2.1953125 C28.24953125 2.1953125 30.22953125 2.1953125 32.26953125 2.1953125 C32.26953125 2.5253125 32.26953125 2.8553125 32.26953125 3.1953125 C18.07953125 2.8653125 3.88953125 2.5353125 -10.73046875 2.1953125 C-7.03888557 -0.26574295 -4.26423321 -0.06044543 0 0 Z " fill="#D37B6F" transform="translate(143.73046875,60.8046875)"/>
<path d="M0 0 C0.66 0 1.32 0 2 0 C2 21.12 2 42.24 2 64 C0.68 64 -0.64 64 -2 64 C-1.67 63.34 -1.34 62.68 -1 62 C-0.34 62.33 0.32 62.66 1 63 C1 43.2 1 23.4 1 3 C0.01 3.33 -0.98 3.66 -2 4 C-1.34 2.68 -0.68 1.36 0 0 Z " fill="#F6B4AD" transform="translate(425,230)"/>
<path d="M0 0 C1.31322788 0.97819024 2.62556152 1.9575811 3.9375 2.9375 C4.66839844 3.48277344 5.39929688 4.02804687 6.15234375 4.58984375 C8 6 8 6 9 7 C9.08713831 8.70772358 9.10700007 10.41898649 9.09765625 12.12890625 C9.09443359 13.16337891 9.09121094 14.19785156 9.08789062 15.26367188 C9.07951172 16.35228516 9.07113281 17.44089844 9.0625 18.5625 C9.05798828 19.65498047 9.05347656 20.74746094 9.04882812 21.87304688 C9.03699826 24.58208495 9.02051543 27.29101599 9 30 C8.01 29.67 7.02 29.34 6 29 C6.33 22.07 6.66 15.14 7 8 C6.01 7.67 5.02 7.34 4 7 C4 6.34 4 5.68 4 5 C2.68 4.34 1.36 3.68 0 3 C0 2.01 0 1.02 0 0 Z " fill="#FAD6CF" transform="translate(280,316)"/>
<path d="M0 0 C0.33 0 0.66 0 1 0 C1.07615491 7.43808422 1.12864414 14.87606763 1.16479492 22.31445312 C1.17986786 24.84411374 1.20032961 27.37374829 1.22631836 29.90332031 C1.26276616 33.54238323 1.2797417 37.18110016 1.29296875 40.8203125 C1.30845261 41.94865509 1.32393646 43.07699768 1.33988953 44.23953247 C1.34111925 49.99566453 1.21711941 54.13906986 -2 59 C-2.66 59 -3.32 59 -4 59 C-2.125 53.25 -2.125 53.25 -1 51 C-0.88127427 49.36664808 -0.82290908 47.72872646 -0.79467773 46.09130859 C-0.77473251 45.07040131 -0.75478729 44.04949402 -0.73423767 42.99765015 C-0.71752518 41.89240997 -0.70081268 40.7871698 -0.68359375 39.6484375 C-0.66281265 38.5192691 -0.64203156 37.39010071 -0.62062073 36.22671509 C-0.55508665 32.60954028 -0.49622226 28.99229119 -0.4375 25.375 C-0.39431846 22.92707556 -0.35070429 20.47915872 -0.30664062 18.03125 C-0.19940133 12.0209125 -0.09764213 6.01050065 0 0 Z " fill="#FDEAE6" transform="translate(206,196)"/>
<path d="M0 0 C0 0.66 0 1.32 0 2 C0.99 1.67 1.98 1.34 3 1 C4.62719482 0.91856145 6.25751719 0.8924698 7.88671875 0.90234375 C8.82451172 0.90556641 9.76230469 0.90878906 10.72851562 0.91210938 C11.70498047 0.92048828 12.68144531 0.92886719 13.6875 0.9375 C14.67556641 0.94201172 15.66363281 0.94652344 16.68164062 0.95117188 C19.12115474 0.96295697 21.56054689 0.97940989 24 1 C24 1.33 24 1.66 24 2 C19.20004797 2.77800681 14.61437936 3.11851665 9.75390625 3.09765625 C9.09792953 3.0962413 8.44195282 3.09482635 7.76609802 3.09336853 C5.69818298 3.08783031 3.63038158 3.07529002 1.5625 3.0625 C0.14909012 3.05747699 -1.26432148 3.0529155 -2.67773438 3.04882812 C-6.11852568 3.03788126 -9.55925172 3.02066038 -13 3 C-8.55956658 0.68570631 -5.03693007 0 0 0 Z " fill="#CB6F63" transform="translate(147,300)"/>
<path d="M0 0 C0.33 0 0.66 0 1 0 C1.17128418 0.65597168 1.34256836 1.31194336 1.51904297 1.98779297 C2.297299 4.95210242 3.08600879 7.91353067 3.875 10.875 C4.14441406 11.90753906 4.41382813 12.94007813 4.69140625 14.00390625 C4.95566406 14.99003906 5.21992188 15.97617188 5.4921875 16.9921875 C5.73308105 17.90339355 5.97397461 18.81459961 6.22216797 19.75341797 C6.87404901 22.16527803 6.87404901 22.16527803 9 24 C10.04767008 26.32309453 11.03806754 28.6423224 12 31 C12.56004115 32.31355107 13.12242756 33.62610546 13.6875 34.9375 C14.120625 35.948125 14.55375 36.95875 15 38 C14.01 38.495 14.01 38.495 13 39 C8.57720259 30.84581023 4.6186458 22.80045577 2 13.875 C1.68929565 12.82904663 1.68929565 12.82904663 1.37231445 11.76196289 C0.26086451 7.75192128 -0.20708106 4.15456367 0 0 Z " fill="#FCE6DF" transform="translate(22,196)"/>
<path d="M0 0 C0.33 0 0.66 0 1 0 C1 13.2 1 26.4 1 40 C3.97 39.34 6.94 38.68 10 38 C11 39 11 39 11.0625 41.5625 C11.041875 42.366875 11.02125 43.17125 11 44 C10.505 42.515 10.505 42.515 10 41 C9.195625 41.2784375 9.195625 41.2784375 8.375 41.5625 C6 42 6 42 0 41 C0 27.47 0 13.94 0 0 Z " fill="#BF615E" transform="translate(359,282)"/>
<path d="M0 0 C3.63 0 7.26 0 11 0 C12.07594949 4.30379796 12.03421709 4.49662612 10 8 C9.67 8.99 9.34 9.98 9 11 C6.9375 12.6875 6.9375 12.6875 5 14 C4.38471234 8.92387682 6.38341651 6.17017994 9 2 C5.53058454 2.45822468 2.32604951 2.89131683 -1 4 C-0.67 2.68 -0.34 1.36 0 0 Z " fill="#EDEDED" transform="translate(416,397)"/>
<path d="M0 0 C4.875 3.625 4.875 3.625 6 7 C5.67 7.66 5.34 8.32 5 9 C2.35139573 9.59355614 -0.29197322 9.74209269 -3 10 C-3.33 8.02 -3.66 6.04 -4 4 C-2.68 3.34 -1.36 2.68 0 2 C0 1.34 0 0.68 0 0 Z " fill="#F5F5F5" transform="translate(461,404)"/>
<path d="M0 0 C0.99 0.33 1.98 0.66 3 1 C3 1.99 3 2.98 3 4 C3.66 4 4.32 4 5 4 C5.33 5.65 5.66 7.3 6 9 C6.5775 8.67 7.155 8.34 7.75 8 C10 7 10 7 14 7 C13.649375 7.495 13.29875 7.99 12.9375 8.5 C11.53988399 12.22697603 12.34967141 15.09802848 13 19 C9.17887051 15.43985833 6.35434874 11.7537863 3.6875 7.25 C3.32849609 6.66089844 2.96949219 6.07179687 2.59960938 5.46484375 C0 1.15691964 0 1.15691964 0 0 Z " fill="#D97769" transform="translate(83,233)"/>
<path d="M0 0 C7.13734422 -0.45719643 11.10598181 -0.35644823 17 4 C19.33967072 4.65478839 21.65130588 5.10855098 24.046875 5.5078125 C26 6 26 6 28 8 C21.52792591 7.82886343 15.64563959 6.47679488 9.5 4.5625 C8.79359375 4.34505127 8.0871875 4.12760254 7.359375 3.90356445 C2.25996984 2.25996984 2.25996984 2.25996984 0 0 Z " fill="#FBE4E1" transform="translate(91,280)"/>
<path d="M0 0 C2.475 0.495 2.475 0.495 5 1 C5 1.66 5 2.32 5 3 C5.66 3 6.32 3 7 3 C7.99 4.485 7.99 4.485 9 6 C11.05925139 6.72382467 11.05925139 6.72382467 13 7 C13.33 8.65 13.66 10.3 14 12 C14.66 12 15.32 12 16 12 C16.70226141 13.24176695 17.38629109 14.49385599 18.0625 15.75 C18.44535156 16.44609375 18.82820313 17.1421875 19.22265625 17.859375 C20.1312406 20.36140628 19.88336837 21.5332355 19 24 C18.74347656 23.46632813 18.48695313 22.93265625 18.22265625 22.3828125 C13.72016145 13.62038155 7.02802422 6.80131376 0 0 Z " fill="#CF6F63" transform="translate(199,100)"/>
<path d="M0 0 C3.63 0 7.26 0 11 0 C2.42216919 5.71855388 -8.31467167 5.39785711 -18.25 5.1875 C-19.48363281 5.17396484 -20.71726563 5.16042969 -21.98828125 5.14648438 C-24.99266604 5.11154967 -27.99608409 5.06250145 -31 5 C-31 4.67 -31 4.34 -31 4 C-15.655 3.505 -15.655 3.505 0 3 C0 2.01 0 1.02 0 0 Z " fill="#D2786A" transform="translate(169,272)"/>
<path d="M0 0 C0 3 0 3 -2.5 5.625 C-3.325 6.40875 -4.15 7.1925 -5 8 C-5 8.33 -5 8.66 -5 9 C-9.29 9 -13.58 9 -18 9 C-18 8.01 -18 7.02 -18 6 C-16.80503906 5.85304688 -16.80503906 5.85304688 -15.5859375 5.703125 C-9.37295727 4.82635407 -4.86233769 4.05194808 0 0 Z " fill="#FDE5E0" transform="translate(294,362)"/>
<path d="M0 0 C6.64986006 0.27253525 12.50089432 0.99105965 18 5 C20 7.75 20 7.75 21 10 C18.50935112 10.68707555 16.62113708 11 14 11 C14.66 9.35 15.32 7.7 16 6 C15.01 6 14.02 6 13 6 C13 5.34 13 4.68 13 4 C11.68 4 10.36 4 9 4 C9 3.34 9 2.68 9 2 C5.7 2 2.4 2 -1 2 C-0.67 1.34 -0.34 0.68 0 0 Z " fill="#D67B70" transform="translate(276,155)"/>
<path d="M0 0 C1.26227417 0.01353516 1.26227417 0.01353516 2.55004883 0.02734375 C3.82875854 0.03314453 3.82875854 0.03314453 5.13330078 0.0390625 C11.7838887 0.12952105 18.174308 0.82408432 24.67504883 2.27734375 C24.67504883 2.93734375 24.67504883 3.59734375 24.67504883 4.27734375 C27.15004883 4.77234375 27.15004883 4.77234375 29.67504883 5.27734375 C29.67504883 5.93734375 29.67504883 6.59734375 29.67504883 7.27734375 C29.0949707 7.07238281 28.51489258 6.86742187 27.91723633 6.65625 C26.74547852 6.25212891 26.74547852 6.25212891 25.55004883 5.83984375 C24.7843457 5.57300781 24.01864258 5.30617187 23.22973633 5.03125 C16.52677876 3.05316008 9.7371462 2.97541206 2.80004883 2.71484375 C1.73012695 2.67166016 0.66020508 2.62847656 -0.44213867 2.58398438 C-3.06962871 2.47841558 -5.69720539 2.37630584 -8.32495117 2.27734375 C-5.65708322 -0.3905242 -3.62926617 0.01775607 0 0 Z " fill="#FEEFEA" transform="translate(355.324951171875,162.72265625)"/>
<path d="M0 0 C0.66 0.33 1.32 0.66 2 1 C-10.84466019 13 -10.84466019 13 -17 13 C-17 12.34 -17 11.68 -17 11 C-16.01 11 -15.02 11 -14 11 C-14 10.34 -14 9.68 -14 9 C-12.68 9 -11.36 9 -10 9 C-10 8.01 -10 7.02 -10 6 C-9.01 5.67 -8.02 5.34 -7 5 C-5.33289654 3.50014391 -5.33289654 3.50014391 -4 2 C-3.34 2.33 -2.68 2.66 -2 3 C-2 2.34 -2 1.68 -2 1 C-1.34 0.67 -0.68 0.34 0 0 Z " fill="#D5786D" transform="translate(449,340)"/>
<path d="M0 0 C0.24991456 6.65050424 -0.26044666 12.56986533 -2 19 C-2.33 19 -2.66 19 -3 19 C-3 15.7 -3 12.4 -3 9 C-4.32 8.67 -5.64 8.34 -7 8 C-5.84316054 5.30070793 -3.38550714 0 0 0 Z " fill="#FAE9E3" transform="translate(469,317)"/>
<path d="M0 0 C6.93 0 13.86 0 21 0 C21 1.32 21 2.64 21 4 C20.67 3.34 20.34 2.68 20 2 C13.4 2 6.8 2 0 2 C0 1.34 0 0.68 0 0 Z " fill="#D0796B" transform="translate(173,195)"/>
<path d="M0 0 C5.80342274 1.48805711 10.17590879 4.59097555 15 8 C14.34 8.66 13.68 9.32 13 10 C9.375 9.625 9.375 9.625 6 9 C5.9071875 8.1028125 5.9071875 8.1028125 5.8125 7.1875 C4.68148263 4.14245324 2.75675905 3.55509485 0 2 C0 1.34 0 0.68 0 0 Z " fill="#DA7468" transform="translate(195,85)"/>
<path d="M0 0 C-0.53367187 0.21914062 -1.06734375 0.43828125 -1.6171875 0.6640625 C-6.93789078 2.92858327 -11.82815655 5.58078652 -16.73828125 8.6328125 C-18.78525315 9.87018757 -20.8453356 10.96457775 -23 12 C-21.09694051 7.15584858 -17.56488682 4.79992244 -13.02734375 2.48046875 C-12.00769531 2.05378906 -10.98804687 1.62710938 -9.9375 1.1875 C-8.91527344 0.74792969 -7.89304687 0.30835937 -6.83984375 -0.14453125 C-3.96318575 -1.01108985 -2.748916 -1.07451633 0 0 Z " fill="#FCE6E0" transform="translate(128,81)"/>
<path d="M0 0 C4.29 0.66 8.58 1.32 13 2 C8.32958611 5.50281042 6.58600962 5.5344992 1 6 C1 5.34 1 4.68 1 4 C0.34 3.67 -0.32 3.34 -1 3 C-0.67 2.01 -0.34 1.02 0 0 Z " fill="#D77262" transform="translate(185,184)"/>
<path d="M0 0 C0 0.33 0 0.66 0 1 C-1.93166016 1.09087891 -1.93166016 1.09087891 -3.90234375 1.18359375 C-5.58074159 1.26798247 -7.25912636 1.3526313 -8.9375 1.4375 C-10.21270508 1.49647461 -10.21270508 1.49647461 -11.51367188 1.55664062 C-12.32255859 1.59853516 -13.13144531 1.64042969 -13.96484375 1.68359375 C-15.08814087 1.73858032 -15.08814087 1.73858032 -16.23413086 1.79467773 C-18.02461326 1.81771063 -18.02461326 1.81771063 -19 3 C-20.47396739 3.20768229 -21.9549126 3.36716017 -23.4375 3.5 C-26.84497505 3.79146944 -26.84497505 3.79146944 -30 5 C-32.125 4.0625 -32.125 4.0625 -34 3 C-22.53777438 -0.18816872 -11.8069818 -0.32071279 0 0 Z " fill="#D9867B" transform="translate(164,76)"/>
<path d="M0 0 C-0.33 0.99 -0.66 1.98 -1 3 C-9.58 3 -18.16 3 -27 3 C-27 2.34 -27 1.68 -27 1 C-26.31373535 1.00523682 -25.6274707 1.01047363 -24.92041016 1.01586914 C-21.82194936 1.03660956 -18.72350314 1.04965076 -15.625 1.0625 C-14.00464844 1.07506836 -14.00464844 1.07506836 -12.3515625 1.08789062 C-11.3203125 1.09111328 -10.2890625 1.09433594 -9.2265625 1.09765625 C-7.79691162 1.10551147 -7.79691162 1.10551147 -6.33837891 1.11352539 C-3.90191137 0.99523792 -2.40540785 0 0 0 Z " fill="#CF6E60" transform="translate(171,86)"/>
<path d="M0 0 C0.99 0 1.98 0 3 0 C3 0.66 3 1.32 3 2 C2.01 2.66 1.02 3.32 0 4 C-0.83615824 6.47858706 -0.83615824 6.47858706 -1.375 9.3125 C-2.61851866 14.37967231 -3.91901895 16.80139323 -8 20 C-8 18.35 -8 16.7 -8 15 C-7.01 15.33 -6.02 15.66 -5 16 C-5 14.68 -5 13.36 -5 12 C-4.34 12 -3.68 12 -3 12 C-2.95101563 11.30132812 -2.90203125 10.60265625 -2.8515625 9.8828125 C-2.73941406 8.51769531 -2.73941406 8.51769531 -2.625 7.125 C-2.55539062 6.22007812 -2.48578125 5.31515625 -2.4140625 4.3828125 C-2 2 -2 2 0 0 Z " fill="#D87A73" transform="translate(424,228)"/>
<path d="M0 0 C2 1 2 1 2.62109375 2.765625 C3.02399618 5.14150323 3.09791478 7.34179517 3.0625 9.75 C3.05347656 10.54921875 3.04445313 11.3484375 3.03515625 12.171875 C3.01775391 13.07679688 3.01775391 13.07679688 3 14 C4.32 14 5.64 14 7 14 C7 15.65 7 17.3 7 19 C5.0625 18.625 5.0625 18.625 3 18 C1.90063081 15.80126161 1.73487246 14.24930181 1.5 11.8125 C1.09661351 7.85547065 0.58590021 3.93390138 0 0 Z " fill="#D37C71" transform="translate(395,183)"/>
<path d="M0 0 C0.66 0 1.32 0 2 0 C2.185625 1.7015625 2.185625 1.7015625 2.375 3.4375 C2.684375 5.2009375 2.684375 5.2009375 3 7 C3.66 7.33 4.32 7.66 5 8 C4.67 9.32 4.34 10.64 4 12 C2.35 12 0.7 12 -1 12 C-0.67 8.04 -0.34 4.08 0 0 Z " fill="#EEEEF0" transform="translate(362,403)"/>
<path d="M0 0 C6.6 0 13.2 0 20 0 C20 0.66 20 1.32 20 2 C10.595 2.495 10.595 2.495 1 3 C0.67 2.01 0.34 1.02 0 0 Z " fill="#C86C5F" transform="translate(141,265)"/>
<path d="M0 0 C3 1 3 1 4.16796875 2.84765625 C4.50441406 3.57855469 4.84085937 4.30945313 5.1875 5.0625 C5.53167969 5.79597656 5.87585938 6.52945313 6.23046875 7.28515625 C6.48441406 7.85105469 6.73835938 8.41695312 7 9 C7.33 9 7.66 9 8 9 C8 11.97 8 14.94 8 18 C7.34 18 6.68 18 6 18 C5.81824219 17.20335937 5.63648438 16.40671875 5.44921875 15.5859375 C4.12980058 10.02408245 2.88910437 4.95275035 0 0 Z " fill="#FBEBE5" transform="translate(393,178)"/>
<path d="M0 0 C0.33 0.66 0.66 1.32 1 2 C0.0625 4.125 0.0625 4.125 -1 6 C-1.66 6 -2.32 6 -3 6 C-3.2475 6.598125 -3.495 7.19625 -3.75 7.8125 C-5.21965004 10.38438757 -6.43090159 11.53194377 -9 13 C-11.75 13.1875 -11.75 13.1875 -14 13 C-13.319375 12.46375 -12.63875 11.9275 -11.9375 11.375 C-9.71457454 9.57774112 -7.50232519 7.77457093 -5.3125 5.9375 C-4.73113281 5.45152344 -4.14976562 4.96554688 -3.55078125 4.46484375 C-1.76036759 2.8831847 -1.76036759 2.8831847 0 0 Z " fill="#CF6D65" transform="translate(191,248)"/>
<path d="M0 0 C0.90492188 0.02320313 1.80984375 0.04640625 2.7421875 0.0703125 C4.10730469 0.09738281 4.10730469 0.09738281 5.5 0.125 C6.19867188 0.14820313 6.89734375 0.17140625 7.6171875 0.1953125 C7.9471875 1.8453125 8.2771875 3.4953125 8.6171875 5.1953125 C8.0809375 4.8653125 7.5446875 4.5353125 6.9921875 4.1953125 C4.0780814 2.96832046 1.74851042 3.05297964 -1.3828125 3.1953125 C-1.7128125 5.5053125 -2.0428125 7.8153125 -2.3828125 10.1953125 C-2.7128125 10.1953125 -3.0428125 10.1953125 -3.3828125 10.1953125 C-4.359375 4.140625 -4.359375 4.140625 -4.3828125 2.1953125 C-2.3828125 0.1953125 -2.3828125 0.1953125 0 0 Z " fill="#EDEDED" transform="translate(229.3828125,396.8046875)"/>
<path d="M0 0 C0.66 0 1.32 0 2 0 C1.5532538 3.46228308 0.49558815 6.53364208 -0.8125 9.75 C-1.12832031 10.52859375 -1.44414062 11.3071875 -1.76953125 12.109375 C-3 14 -3 14 -5.13671875 14.765625 C-5.75160156 14.84296875 -6.36648438 14.9203125 -7 15 C-5.63408831 11.45756548 -4.09068516 8.07372071 -2.375 4.6875 C-1.70597656 3.36298828 -1.70597656 3.36298828 -1.0234375 2.01171875 C-0.68570312 1.34785156 -0.34796875 0.68398438 0 0 Z " fill="#CE7061" transform="translate(455,311)"/>
<path d="M0 0 C1.97566188 1.97566188 2.89579072 3.52337094 4.125 6 C4.47820313 6.70125 4.83140625 7.4025 5.1953125 8.125 C6 10 6 10 6 12 C4.125 12.625 4.125 12.625 2 13 C0 11 0 11 -0.1953125 8.3984375 C-0.17210938 7.40070313 -0.14890625 6.40296875 -0.125 5.375 C-0.10695313 4.37210938 -0.08890625 3.36921875 -0.0703125 2.3359375 C-0.04710938 1.56507813 -0.02390625 0.79421875 0 0 Z " fill="#DA766A" transform="translate(27,219)"/>
<path d="M0 0 C-2.88185755 2.27339111 -5.79708007 4.07542568 -9.0625 5.75 C-9.91972656 6.19859375 -10.77695313 6.6471875 -11.66015625 7.109375 C-14 8 -14 8 -17 7 C-16.34 6.67 -15.68 6.34 -15 6 C-15 5.34 -15 4.68 -15 4 C-14.0925 3.71125 -13.185 3.4225 -12.25 3.125 C-9.1331903 2.14639451 -9.1331903 2.14639451 -6.9375 0.875 C-4.52612646 -0.2140074 -2.61567161 -0.14531509 0 0 Z " fill="#D77A6E" transform="translate(90,73)"/>
<path d="M0 0 C0 0.66 0 1.32 0 2 C-1.65071396 3.02611949 -3.31970006 4.02308143 -5 5 C-5.474375 5.495 -5.94875 5.99 -6.4375 6.5 C-8.69032572 8.66271269 -11.14487371 9.78505264 -14 11 C-14.66 10.67 -15.32 10.34 -16 10 C-14.42040347 8.70376621 -12.83616587 7.41318673 -11.25 6.125 C-10.36828125 5.40570313 -9.4865625 4.68640625 -8.578125 3.9453125 C-3.34939759 0 -3.34939759 0 0 0 Z " fill="#D47A6C" transform="translate(119,85)"/>
<path d="M0 0 C2.64 0.66 5.28 1.32 8 2 C8 2.66 8 3.32 8 4 C9.65 4.33 11.3 4.66 13 5 C13.33 6.32 13.66 7.64 14 9 C3.25740319 3.9977221 3.25740319 3.9977221 0 0 Z " fill="#FCE6E2" transform="translate(248,328)"/>
<path d="M0 0 C0 0.66 0 1.32 0 2 C-1.65532623 3.01866229 -3.32260138 4.01810813 -5 5 C-5.33 5.66 -5.66 6.32 -6 7 C-9.3 7 -12.6 7 -16 7 C-13.46702371 5.31134914 -11.20879805 4.13824363 -8.4375 2.9375 C-1.68679245 0 -1.68679245 0 0 0 Z " fill="#FBE4DE" transform="translate(442,349)"/>
<path d="M0 0 C3.35810395 1.38956025 5.18586552 2.82526467 7 6 C7.1875 8.75 7.1875 8.75 7 11 C5.66666667 9 4.33333333 7 3 5 C2.01 5 1.02 5 0 5 C0 3.35 0 1.7 0 0 Z M-2 5 C-1.01 5.33 -0.02 5.66 1 6 C1 6.66 1 7.32 1 8 C0.01 7.67 -0.98 7.34 -2 7 C-2 6.34 -2 5.68 -2 5 Z " fill="#D97266" transform="translate(198,187)"/>
<path d="M0 0 C0.33 0 0.66 0 1 0 C0.91224337 2.20904631 0.80405633 4.41728593 0.6875 6.625 C0.62949219 7.85476563 0.57148438 9.08453125 0.51171875 10.3515625 C-0.01996453 14.1423425 -1.10647796 16.70029671 -3 20 C-4.37344385 15.60155678 -3.24307502 12.07495445 -2.0625 7.75 C-1.86720703 7.00492187 -1.67191406 6.25984375 -1.47070312 5.4921875 C-0.98895802 3.65920614 -0.49560775 1.82928182 0 0 Z " fill="#D57D70" transform="translate(467,332)"/>
<path d="M0 0 C0.66 0 1.32 0 2 0 C2 0.99 2 1.98 2 3 C2.66 3 3.32 3 4 3 C4.268125 3.86625 4.53625 4.7325 4.8125 5.625 C5.97111987 8.91791964 7.38209839 11.91127875 9 15 C8.01 15 7.02 15 6 15 C4.99539469 12.87717331 3.99644398 10.75166979 3 8.625 C2.443125 7.44164062 1.88625 6.25828125 1.3125 5.0390625 C0 2 0 2 0 0 Z " fill="#FAE5D9" transform="translate(213,281)"/>
<path d="M0 0 C0 3.69418201 -1.28179295 5.77836178 -3 9 C-3.66 9 -4.32 9 -5 9 C-6.70680947 10.62553283 -8.37660195 12.29115995 -10 14 C-8.62815653 9.93501119 -6.77931541 7.32603439 -3.875 4.1875 C-3.15054688 3.39730469 -2.42609375 2.60710937 -1.6796875 1.79296875 C-1.12539062 1.20128906 -0.57109375 0.60960938 0 0 Z " fill="#D67A72" transform="translate(98,100)"/>
<path d="M0 0 C1.65 0 3.3 0 5 0 C1.11973109 4.24404412 -3.04254346 7.10917547 -8 10 C-8.33 9.01 -8.66 8.02 -9 7 C-6.0173094 5.47551369 -3.181798 4.06059933 0 3 C0 2.01 0 1.02 0 0 Z " fill="#DA7A72" transform="translate(68,81)"/>
<path d="M0 0 C1.49341969 2.98683937 0.40648676 4.95160978 -0.4375 8.125 C-0.72496094 9.22070312 -1.01242187 10.31640625 -1.30859375 11.4453125 C-1.53675781 12.28835938 -1.76492188 13.13140625 -2 14 C-2.33 14 -2.66 14 -3 14 C-3.5745952 10.26513121 -4 6.78706732 -4 3 C-2 1.25 -2 1.25 0 0 Z " fill="#FBE8E4" transform="translate(464,343)"/>
<path d="M0 0 C2 0.875 2 0.875 3.25 3.25 C4 5.875 4 5.875 4 8.875 C3.34 8.875 2.68 8.875 2 8.875 C2 8.215 2 7.555 2 6.875 C1.34 6.875 0.68 6.875 0 6.875 C0 5.555 0 4.235 0 2.875 C-1.32 2.875 -2.64 2.875 -4 2.875 C-4 2.215 -4 1.555 -4 0.875 C-2 -0.125 -2 -0.125 0 0 Z " fill="#D57D71" transform="translate(211,279.125)"/>
<path d="M0 0 C0.33 1.32 0.66 2.64 1 4 C-2.0684847 6.97550031 -3.46236331 7.96474513 -7.8125 8.25 C-8.864375 8.1675 -9.91625 8.085 -11 8 C-11 6.68 -11 5.36 -11 4 C-9.515 4.99 -9.515 4.99 -8 6 C-4.87966141 5.48775515 -4.87966141 5.48775515 -2 4 C-0.57944932 1.99863756 -0.57944932 1.99863756 0 0 Z " fill="#EAEAEB" transform="translate(171,408)"/>
<path d="M0 0 C0.66 0 1.32 0 2 0 C2 0.66 2 1.32 2 2 C2.66 2 3.32 2 4 2 C4.103125 2.61875 4.20625 3.2375 4.3125 3.875 C4.87525373 6.36526484 4.87525373 6.36526484 8 8 C7.67 8.99 7.34 9.98 7 11 C4.36 8.36 1.72 5.72 -1 3 C-0.67 2.01 -0.34 1.02 0 0 Z " fill="#D07368" transform="translate(225,321)"/>
<path d="M0 0 C0.66 1.32 1.32 2.64 2 4 C1.01 4.495 1.01 4.495 0 5 C0.185625 5.928125 0.37125 6.85625 0.5625 7.8125 C1 11 1 11 0 14 C-0.66 14 -1.32 14 -2 14 C-2.33 14.99 -2.66 15.98 -3 17 C-2.48517081 11.147205 -1.54642808 5.6702363 0 0 Z " fill="#CF7065" transform="translate(13,137)"/>
<path d="M0 0 C4.64191996 1.76072826 6.02345846 4.93202967 8.0625 9.25 C8.88003585 11.18053285 8.88003585 11.18053285 11 12 C10.01 12 9.02 12 8 12 C5.95703125 9.62890625 5.95703125 9.62890625 3.8125 6.5625 C3.09707031 5.55316406 2.38164063 4.54382813 1.64453125 3.50390625 C0 1 0 1 0 0 Z " fill="#FCE5E0" transform="translate(36,235)"/>
<path d="M0 0 C0 0.66 0 1.32 0 2 C-5.75 5 -5.75 5 -8 5 C-8.33 5.99 -8.66 6.98 -9 8 C-10.65 8 -12.3 8 -14 8 C-11.72402354 5.50447597 -9.39278822 3.93377014 -6.4375 2.3125 C-5.65246094 1.87550781 -4.86742188 1.43851562 -4.05859375 0.98828125 C-2 0 -2 0 0 0 Z " fill="#FCE6DF" transform="translate(85,76)"/>
<path d="M0 0 C5.28 1.32 10.56 2.64 16 4 C16 4.33 16 4.66 16 5 C11.1666528 5.08333357 6.76307437 4.95261487 2 4 C2 3.34 2 2.68 2 2 C1.34 2 0.68 2 0 2 C0 1.34 0 0.68 0 0 Z " fill="#FDE6E0" transform="translate(122,272)"/>
<path d="M0 0 C0.33 0 0.66 0 1 0 C1.35050464 5.841744 1.16727335 9.8531808 -2 15 C-3.7469959 9.75901229 -2.23281322 4.91218908 0 0 Z " fill="#D37567" transform="translate(204,240)"/>
<path d="M0 0 C2.97 0 5.94 0 9 0 C9 0.99 9 1.98 9 3 C6.03 3 3.06 3 0 3 C0 2.01 0 1.02 0 0 Z " fill="#FEE2DB" transform="translate(264,182)"/>
<path d="M0 0 C3.3 0 6.6 0 10 0 C10 0.66 10 1.32 10 2 C11.65 2.33 13.3 2.66 15 3 C15 3.66 15 4.32 15 5 C14.41992188 4.79503906 13.83984375 4.59007812 13.2421875 4.37890625 C8.8378016 2.85990187 4.64322223 1.5952849 0 1 C0 0.67 0 0.34 0 0 Z " fill="#FCE3DA" transform="translate(370,165)"/>
<path d="M0 0 C0.87840996 3.09720845 0.99435406 4.90645403 0 8 C-0.66 8 -1.32 8 -2 8 C-2.12375 8.78375 -2.2475 9.5675 -2.375 10.375 C-3 13 -3 13 -5 15 C-4.37321829 11.33827525 -3.35548154 8.1181005 -1.9375 4.6875 C-1.39416016 3.36298828 -1.39416016 3.36298828 -0.83984375 2.01171875 C-0.56269531 1.34785156 -0.28554688 0.68398437 0 0 Z " fill="#CF7369" transform="translate(19,122)"/>
<path d="M0 0 C0.66 0.33 1.32 0.66 2 1 C1.54803755 2.60597325 1.08817673 4.20972508 0.625 5.8125 C0.36976562 6.70582031 0.11453125 7.59914062 -0.1484375 8.51953125 C-1 11 -1 11 -3 14 C-2.88570603 12.22844346 -2.75816963 10.45773771 -2.625 8.6875 C-2.55539063 7.70136719 -2.48578125 6.71523437 -2.4140625 5.69921875 C-2 3 -2 3 0 0 Z " fill="#D57769" transform="translate(27,129)"/>
<path d="M0 0 C0.66 0 1.32 0 2 0 C1.67 0.99 1.34 1.98 1 3 C0.67 2.01 0.34 1.02 0 0 Z M-1 3 C1.31 3 3.62 3 6 3 C5.67 3.99 5.34 4.98 5 6 C2.36 6.33 -0.28 6.66 -3 7 C-2.34 5.68 -1.68 4.36 -1 3 Z " fill="#EAEAEC" transform="translate(213,409)"/>
<path d="M0 0 C2.64 0 5.28 0 8 0 C6.8125 2 6.8125 2 5 4 C2.3125 4.25 2.3125 4.25 0 4 C0 2.68 0 1.36 0 0 Z " fill="#EAEAEB" transform="translate(470,397)"/>
<path d="M0 0 C0.99 0.66 1.98 1.32 3 2 C2.67 2.99 2.34 3.98 2 5 C0.68 5 -0.64 5 -2 5 C-2.33 5.66 -2.66 6.32 -3 7 C-4 5 -4 5 -3.75 2.9375 C-3.5025 2.298125 -3.255 1.65875 -3 1 C-2.01 0.67 -1.02 0.34 0 0 Z " fill="#F9F9F9" transform="translate(291,396)"/>
<path d="M0 0 C1.32 0.33 2.64 0.66 4 1 C2.56542672 1.9834496 1.12722594 2.96160921 -0.3125 3.9375 C-1.11300781 4.48277344 -1.91351563 5.02804687 -2.73828125 5.58984375 C-5 7 -5 7 -8 8 C-8 7.01 -8 6.02 -8 5 C-6.865625 4.731875 -5.73125 4.46375 -4.5625 4.1875 C-3.386875 3.795625 -2.21125 3.40375 -1 3 C-0.67 2.01 -0.34 1.02 0 0 Z " fill="#D57C71" transform="translate(189,264)"/>
<path d="M0 0 C0.33 0.99 0.66 1.98 1 3 C0.57847656 3.39832031 0.15695313 3.79664063 -0.27734375 4.20703125 C-0.82519531 4.73683594 -1.37304688 5.26664062 -1.9375 5.8125 C-2.48277344 6.33457031 -3.02804688 6.85664063 -3.58984375 7.39453125 C-5.23519092 9.05812198 -5.23519092 9.05812198 -6 12 C-6.99 12 -7.98 12 -9 12 C-7.55575365 8.76138697 -5.74227753 6.38030837 -3.375 3.75 C-2.74335938 3.04359375 -2.11171875 2.3371875 -1.4609375 1.609375 C-0.97882813 1.07828125 -0.49671875 0.5471875 0 0 Z " fill="#FDE3DC" transform="translate(201,255)"/>
<path d="M0 0 C0.66 0 1.32 0 2 0 C2 0.99 2 1.98 2 3 C1.34 3 0.68 3 0 3 C-0.33 5.64 -0.66 8.28 -1 11 C-1.99 11.33 -2.98 11.66 -4 12 C-3.52494322 10.18641846 -3.04483958 8.37415821 -2.5625 6.5625 C-2.29566406 5.55316406 -2.02882813 4.54382813 -1.75390625 3.50390625 C-1 1 -1 1 0 0 Z " fill="#FCE4DE" transform="translate(424,233)"/>
<path d="M0 0 C0.99 0.33 1.98 0.66 3 1 C0.03 5.95 0.03 5.95 -3 11 C-3.66 10.34 -4.32 9.68 -5 9 C-5 8.01 -5 7.02 -5 6 C-4.01 6 -3.02 6 -2 6 C-1.34 4.02 -0.68 2.04 0 0 Z " fill="#D87B72" transform="translate(35,115)"/>
<path d="M0 0 C0 0.33 0 0.66 0 1 C1.65 1.33 3.3 1.66 5 2 C5 2.33 5 2.66 5 3 C-0.28 2.67 -5.56 2.34 -11 2 C-11 1.67 -11 1.34 -11 1 C-9.5437328 0.63743142 -8.08488815 0.28520207 -6.625 -0.0625 C-5.40683594 -0.35833984 -5.40683594 -0.35833984 -4.1640625 -0.66015625 C-2 -1 -2 -1 0 0 Z " fill="#D36E64" transform="translate(128,299)"/>
<path d="M0 0 C0.66 1.32 1.32 2.64 2 4 C2.99 4.33 3.98 4.66 5 5 C4.67 5.99 4.34 6.98 4 8 C2.02 8.33 0.04 8.66 -2 9 C-1.34 6.03 -0.68 3.06 0 0 Z " fill="#D26B5B" transform="translate(411,230)"/>
<path d="M0 0 C0 3.99191204 -1.25498212 5.18079244 -4 8 C-6.75 8.8125 -6.75 8.8125 -9 9 C-6 6 -3 3 0 0 Z " fill="#FDE3DF" transform="translate(451,340)"/>
<path d="M0 0 C0 1.65 0 3.3 0 5 C-0.33 4.01 -0.66 3.02 -1 2 C-1.53625 2.185625 -2.0725 2.37125 -2.625 2.5625 C-5.61990614 3.11419324 -8.03745829 2.60597444 -11 2 C-7.50078951 0.05599417 -3.80583038 -1.90291519 0 0 Z " fill="#CB6C5F" transform="translate(370,321)"/>
<path d="M0 0 C2.96404505 2.80804268 5.44499019 5.18315774 7 9 C3.34683329 7.75023244 2.21934164 7.32901247 0 4 C0 2.68 0 1.36 0 0 Z " fill="#FCE2E0" transform="translate(268,302)"/>
<path d="M0 0 C2.12508244 3.18762365 2.5020163 5.26512223 3 9 C3.99 9 4.98 9 6 9 C5.67 9.99 5.34 10.98 5 12 C4.01 12.33 3.02 12.66 2 13 C0.18884044 11.18884044 0.61800552 8.38721773 0.4375 5.9375 C0.35371094 4.83277344 0.26992188 3.72804688 0.18359375 2.58984375 C0.09271484 1.30787109 0.09271484 1.30787109 0 0 Z " fill="#D98479" transform="translate(421,285)"/>
<path d="M0 0 C6.875 3.75 6.875 3.75 8 6 C6.68 6.33 5.36 6.66 4 7 C4 6.34 4 5.68 4 5 C3.01 5 2.02 5 1 5 C1 4.01 1 3.02 1 2 C0.34 1.67 -0.32 1.34 -1 1 C-0.67 0.67 -0.34 0.34 0 0 Z " fill="#FBE8E7" transform="translate(104,261)"/>
<path d="M0 0 C0.4125 0.474375 0.825 0.94875 1.25 1.4375 C3.182185 3.16266518 4.48192275 3.56584875 7 4 C7 5.65 7 7.3 7 9 C5.82460004 8.07347299 4.65989423 7.13336613 3.5 6.1875 C2.52546875 5.40439453 2.52546875 5.40439453 1.53125 4.60546875 C0 3 0 3 0 0 Z " fill="#D37869" transform="translate(97,251)"/>
<path d="M0 0 C2.40072955 2.88087546 4.47291037 5.56404834 6 9 C4.02 9 2.04 9 0 9 C0 8.34 0 7.68 0 7 C0.66 7 1.32 7 2 7 C2 6.01 2 5.02 2 4 C1.34 4 0.68 4 0 4 C0 2.68 0 1.36 0 0 Z " fill="#FBE8E1" transform="translate(84,236)"/>
<path d="M0 0 C0.33 0 0.66 0 1 0 C1 1.98 1 3.96 1 6 C0.01 6 -0.98 6 -2 6 C-2.12375 6.639375 -2.2475 7.27875 -2.375 7.9375 C-2.58125 8.618125 -2.7875 9.29875 -3 10 C-3.99 10.495 -3.99 10.495 -5 11 C-3.77782954 6.95743617 -2.37245704 3.50711041 0 0 Z " fill="#FBE8E3" transform="translate(35,119)"/>
<path d="M0 0 C0 0.99 0 1.98 0 3 C-1.64333504 4.03789581 -3.31243867 5.03567924 -5 6 C-5.99 7.485 -5.99 7.485 -7 9 C-8.32 8.67 -9.64 8.34 -11 8 C-7.37 5.36 -3.74 2.72 0 0 Z " fill="#FBE5DF" transform="translate(69,84)"/>
<path d="M0 0 C1.60517097 0.08733576 3.20921662 0.19552224 4.8125 0.3125 C6.15248047 0.39951172 6.15248047 0.39951172 7.51953125 0.48828125 C10.30604 1.06313581 11.24135754 1.8206856 13 4 C8.28596212 3.52060632 4.33420699 3.03165952 0 1 C0 0.67 0 0.34 0 0 Z " fill="#D68077" transform="translate(124,272)"/>
<path d="M0 0 C0.66 0.33 1.32 0.66 2 1 C2 1.66 2 2.32 2 3 C2.99 3 3.98 3 5 3 C5.33 4.32 5.66 5.64 6 7 C2.62496331 5.8141763 0.35277269 4.72426311 -2 2 C-1.34 1.34 -0.68 0.68 0 0 Z " fill="#F8E5DE" transform="translate(70,266)"/>
<path d="M0 0 C3.68006822 3.38168431 5.9785845 6.42521756 8 11 C4.71573897 9.94434467 3.42848444 8.38339648 1.75 5.5 C0 2 0 2 0 0 Z " fill="#D67C73" transform="translate(218,101)"/>
<path d="M0 0 C1.65 0 3.3 0 5 0 C5.33 0.99 5.66 1.98 6 3 C4.02 3.33 2.04 3.66 0 4 C0 2.68 0 1.36 0 0 Z " fill="#E2E1E2" transform="translate(82,412)"/>
<path d="M0 0 C-0.33 0.66 -0.66 1.32 -1 2 C-4.63 2 -8.26 2 -12 2 C-4.8 -1.6 -4.8 -1.6 0 0 Z " fill="#D98277" transform="translate(198,285)"/>
<path d="M0 0 C2.49361571 1.20381448 4.68143083 2.45428722 7 4 C6.67 5.32 6.34 6.64 6 8 C4.9970458 6.85675161 3.99770973 5.71032809 3 4.5625 C2.443125 3.92441406 1.88625 3.28632813 1.3125 2.62890625 C0 1 0 1 0 0 Z " fill="#FBE1DC" transform="translate(46,248)"/>
<path d="M0 0 C2.93200474 2.85276137 5.64315404 5.65079784 8 9 C6.68 9 5.36 9 4 9 C0 2.25 0 2.25 0 0 Z " fill="#D57E73" transform="translate(39,241)"/>
<path d="M0 0 C1.9375 0.3125 1.9375 0.3125 4 1 C4.33 1.99 4.66 2.98 5 4 C2.50935112 4.68707555 0.62113708 5 -2 5 C-1.34 3.35 -0.68 1.7 0 0 Z " fill="#DB7466" transform="translate(292,161)"/>
<path d="M0 0 C1.18414294 3.55242882 0.69535532 4.69830562 -0.4375 8.1875 C-0.72496094 9.08855469 -1.01242188 9.98960937 -1.30859375 10.91796875 C-1.53675781 11.60503906 -1.76492187 12.29210937 -2 13 C-2.33 13 -2.66 13 -3 13 C-3.27429625 7.60550707 -3.36055646 4.48074195 0 0 Z " fill="#D26B66" transform="translate(89,135)"/>
<path d="M0 0 C-1.41478135 0.64995297 -2.83191487 1.29478722 -4.25 1.9375 C-5.03890625 2.29714844 -5.8278125 2.65679687 -6.640625 3.02734375 C-8.75823698 3.90033279 -10.76669362 4.51338508 -13 5 C-13 4.34 -13 3.68 -13 3 C-11.5903653 2.29819469 -10.17192359 1.61406042 -8.75 0.9375 C-7.96109375 0.55464844 -7.1721875 0.17179687 -6.359375 -0.22265625 C-3.74006478 -1.08564091 -2.55144824 -0.93045933 0 0 Z " fill="#FBDED8" transform="translate(128,81)"/>
<path d="M0 0 C0.66 0.33 1.32 0.66 2 1 C0.6875 3.5 0.6875 3.5 -1 6 C-1.99 6 -2.98 6 -4 6 C-3.6875 4.125 -3.6875 4.125 -3 2 C-2.01 1.34 -1.02 0.68 0 0 Z " fill="#D16E60" transform="translate(68,70)"/>
<path d="M0 0 C2.64 1.98 5.28 3.96 8 6 C7.01 6.33 6.02 6.66 5 7 C2 5 2 5 0 3 C0 2.01 0 1.02 0 0 Z " fill="#D6776D" transform="translate(210,94)"/>
<path d="M0 0 C0 3 0 3 -2 6 C-4.625 6.1875 -4.625 6.1875 -7 6 C-4.9859524 2.9789286 -3.36720387 1.39332574 0 0 Z " fill="#D96F65" transform="translate(106,94)"/>
<path d="M0 0 C0.33 0 0.66 0 1 0 C1.36923077 5.53846154 1.36923077 5.53846154 -0.5 7.875 C-1.2425 8.431875 -1.2425 8.431875 -2 9 C-3 6 -3 6 -1.5625 2.8125 C-1.046875 1.884375 -0.53125 0.95625 0 0 Z " fill="#F8F8F8" transform="translate(53,406)"/>
<path d="M0 0 C0.33 0 0.66 0 1 0 C1 1.65 1 3.3 1 5 C-2.96 5 -6.92 5 -11 5 C-11 4.67 -11 4.34 -11 4 C-10.37351562 3.96261719 -9.74703125 3.92523438 -9.1015625 3.88671875 C-8.28429687 3.82097656 -7.46703125 3.75523437 -6.625 3.6875 C-5.81289063 3.62949219 -5.00078125 3.57148438 -4.1640625 3.51171875 C-1.62078662 3.17009472 -1.62078662 3.17009472 0 0 Z " fill="#FEE8E2" transform="translate(458,366)"/>
<path d="M0 0 C1 3 1 3 -0.1875 5.625 C-2 8 -2 8 -6 9 C-4.02 6.03 -2.04 3.06 0 0 Z " fill="#FCE6DF" transform="translate(458,331)"/>
<path d="M0 0 C2.125 0.375 2.125 0.375 4 1 C2.35830472 3.02054804 0.69088222 5.02043058 -1 7 C-1.33 7 -1.66 7 -2 7 C-2.125 4.625 -2.125 4.625 -2 2 C-1.34 1.34 -0.68 0.68 0 0 Z " fill="#D67B70" transform="translate(454,332)"/>
<path d="M0 0 C2.32472205 2.85306797 3.7508258 5.54074837 5 9 C2.525 8.01 2.525 8.01 0 7 C0.33 6.34 0.66 5.68 1 5 C0.34 4.67 -0.32 4.34 -1 4 C-0.67 2.68 -0.34 1.36 0 0 Z " fill="#CB6E64" transform="translate(274,287)"/>
<path d="M0 0 C2.92879371 0.62759865 5.36095629 1.58622659 8 3 C7.67 4.32 7.34 5.64 7 7 C5.83040013 6.02433888 4.66438823 5.044375 3.5 4.0625 C2.8503125 3.51722656 2.200625 2.97195313 1.53125 2.41015625 C1.0259375 1.94480469 0.520625 1.47945313 0 1 C0 0.67 0 0.34 0 0 Z " fill="#FBE1DA" transform="translate(53,256)"/>
<path d="M0 0 C2.31 0.66 4.62 1.32 7 2 C7 3.98 7 5.96 7 8 C4.35247996 5.42215154 2.05567935 3.08351902 0 0 Z " fill="#CC6C60" transform="translate(30,249)"/>
<path d="M0 0 C0.99 1.32 1.98 2.64 3 4 C2 6 2 6 0 7 C-0.99 5.35 -1.98 3.7 -3 2 C-2.01 1.34 -1.02 0.68 0 0 Z " fill="#DC645A" transform="translate(29,241)"/>
<path d="M0 0 C1.32 0 2.64 0 4 0 C4 1.65 4 3.3 4 5 C2.68 4.67 1.36 4.34 0 4 C0 2.68 0 1.36 0 0 Z " fill="#E2958C" transform="translate(398,197)"/>
<path d="M0 0 C0.99 0 1.98 0 3 0 C1.8141763 3.37503669 0.72426311 5.64722731 -2 8 C-2.20086443 4.28400809 -2.1519437 3.22791555 0 0 Z " fill="#D16B65" transform="translate(98,115)"/>
<path d="M0 0 C-0.375 1.9375 -0.375 1.9375 -1 4 C-1.99 4.495 -1.99 4.495 -3 5 C-3 4.34 -3 3.68 -3 3 C-4.98 3 -6.96 3 -9 3 C-9 2.67 -9 2.34 -9 2 C-2.25 0 -2.25 0 0 0 Z " fill="#CE6B5A" transform="translate(406,242)"/>
<path d="M0 0 C2.31 0 4.62 0 7 0 C7.33 1.65 7.66 3.3 8 5 C5.36 3.68 2.72 2.36 0 1 C0 0.67 0 0.34 0 0 Z " fill="#F6DDD3" transform="translate(195,185)"/>
<path d="M0 0 C2.39763185 2.39763185 2.34280586 3.33273498 2.625 6.625 C2.69976562 7.44226563 2.77453125 8.25953125 2.8515625 9.1015625 C2.90054687 9.72804687 2.94953125 10.35453125 3 11 C2.67 9.68 2.34 8.36 2 7 C1.34 7 0.68 7 0 7 C0 4.69 0 2.38 0 0 Z " fill="#D57D72" transform="translate(297,165)"/>
<path d="M0 0 C0.99 0.33 1.98 0.66 3 1 C-0.465 3.97 -0.465 3.97 -4 7 C-3.04065919 3.16263678 -2.76390737 2.40339772 0 0 Z " fill="#FCE0DC" transform="translate(98,97)"/>
<path d="M0 0 C0 0.66 0 1.32 0 2 C-3.13498292 3.85776765 -5.37471432 4.20140476 -9 4 C-8 2 -8 2 -5.625 0.875 C-3 0 -3 0 0 0 Z " fill="#D7776D" transform="translate(128,81)"/>
<path d="M0 0 C1.98 0.495 1.98 0.495 4 1 C3.67 1.99 3.34 2.98 3 4 C1.68 4 0.36 4 -1 4 C-0.67 2.68 -0.34 1.36 0 0 Z " fill="#E7E6EC" transform="translate(462,397)"/>
<path d="M0 0 C5.75 1.75 5.75 1.75 8 4 C6.02 4 4.04 4 2 4 C1.34 2.68 0.68 1.36 0 0 Z " fill="#D8776D" transform="translate(74,273)"/>
</svg>
